<svg width="13" height="13" viewBox="0 0 13 13" fill="none" xmlns="http://www.w3.org/2000/svg">
<path fill-rule="evenodd" clip-rule="evenodd" d="M6.45083 0.40625C3.06158 0.40625 0.304199 3.13991 0.304199 6.5C0.304199 7.553 0.580798 8.58406 1.10572 9.50056L0.335547 11.7918C0.262402 12.0106 0.319566 12.2519 0.484296 12.4152C0.601082 12.531 0.758435 12.5938 0.918862 12.5938C0.984017 12.5938 1.04917 12.5834 1.1131 12.5621L3.42423 11.7985C4.3493 12.3201 5.38931 12.5938 6.45083 12.5938C9.84009 12.5938 12.5975 9.86009 12.5975 6.5C12.5975 3.13991 9.84009 0.40625 6.45083 0.40625ZM6.45073 11.375C5.52382 11.375 4.61596 11.113 3.82674 10.6176C3.72716 10.5548 3.61283 10.5231 3.49789 10.5231C3.43212 10.5231 3.36697 10.5329 3.30304 10.5542L1.89055 11.021L2.36138 9.62002C2.41977 9.44635 2.39641 9.25561 2.29745 9.10144C1.79773 8.31839 1.53343 7.41956 1.53343 6.50002C1.53343 3.81206 3.73945 1.62502 6.45073 1.62502C9.16201 1.62502 11.368 3.81206 11.368 6.50002C11.368 9.18797 9.16201 11.375 6.45073 11.375ZM6.45062 5.89069C6.11133 5.89069 5.83596 6.16308 5.83596 6.50006C5.83596 6.83705 6.11133 7.10944 6.45062 7.10944C6.78992 7.10944 7.06529 6.83705 7.06529 6.50006C7.06529 6.16308 6.78992 5.89069 6.45062 5.89069ZM3.99218 5.89069C3.65288 5.89069 3.37752 6.16308 3.37752 6.50006C3.37752 6.83705 3.65288 7.10944 3.99218 7.10944C4.33147 7.10944 4.60684 6.83705 4.60684 6.50006C4.60684 6.16308 4.33147 5.89069 3.99218 5.89069ZM8.90958 5.89069C8.57029 5.89069 8.29492 6.16308 8.29492 6.50006C8.29492 6.83705 8.57029 7.10944 8.90958 7.10944C9.24888 7.10944 9.52425 6.83705 9.52425 6.50006C9.52425 6.16308 9.24888 5.89069 8.90958 5.89069Z" fill="white"/>
</svg>
