<svg width="36" height="35" viewBox="0 0 36 35" fill="none" xmlns="http://www.w3.org/2000/svg">
<path d="M18 6.12497C11.5412 6.12497 6.29997 11.2206 6.29997 17.5C6.29997 23.7794 11.5412 28.875 18 28.875C24.4588 28.875 29.7 23.7794 29.7 17.5C29.7 11.2206 24.4588 6.12497 18 6.12497ZM18 3.28125C26.0642 3.28125 32.625 9.65976 32.625 17.5C32.625 25.3402 26.0642 31.7188 18 31.7188C9.93575 31.7188 3.375 25.3402 3.375 17.5C3.375 9.65976 9.93575 3.28125 18 3.28125Z" fill="#00586F"/>
<path d="M21.267 20.833L21.8239 17.2968H18.3488V15.004C18.3488 14.0361 18.8332 13.0936 20.3908 13.0936H21.9706V10.083C21.0428 9.93655 20.1053 9.85659 19.1655 9.84375C16.2975 9.84375 14.4411 11.5366 14.4411 14.6034V17.2986H11.25V20.833H14.4411V29.3827C15.7389 29.5808 17.0603 29.5808 18.358 29.3827V20.833H21.267Z" fill="#00586F"/>
</svg>
