<svg width="35" height="35" viewBox="0 0 35 35" fill="none" xmlns="http://www.w3.org/2000/svg">
<mask id="path-1-outside-1_13_2002" maskUnits="userSpaceOnUse" x="8.84375" y="8.84375" width="17" height="17" fill="black">
<rect fill="white" x="8.84375" y="8.84375" width="17" height="17"/>
<path d="M17.4991 11.2281C19.5426 11.2281 19.7838 11.2281 20.5904 11.2731C21.0762 11.2781 21.5574 11.367 22.0128 11.5359C22.3436 11.6627 22.6442 11.8573 22.8954 12.1072C23.1465 12.3571 23.3426 12.6567 23.4711 12.9869C23.6401 13.4422 23.729 13.9234 23.7339 14.4091C23.7717 15.2155 23.779 15.4568 23.779 17.5C23.779 19.5433 23.779 19.7844 23.7339 20.591C23.729 21.0766 23.6401 21.5577 23.4711 22.0131C23.3434 22.3426 23.1485 22.6418 22.8986 22.8916C22.6487 23.1414 22.3495 23.3365 22.0199 23.464C21.5645 23.633 21.0834 23.7219 20.5976 23.7269C19.7911 23.7647 19.5498 23.7719 17.5063 23.7719C15.4629 23.7719 15.2216 23.7719 14.415 23.7269C13.9293 23.7219 13.4481 23.633 12.9927 23.464C12.6632 23.3365 12.3639 23.1414 12.1141 22.8916C11.8642 22.6418 11.6692 22.3426 11.5415 22.0131C11.3726 21.5577 11.2837 21.0766 11.2787 20.591C11.2283 19.7844 11.2283 19.5433 11.2283 17.5C11.2283 15.4568 11.2283 15.2155 11.2733 14.4091C11.2783 13.9234 11.3672 13.4422 11.5361 12.9869C11.6638 12.6574 11.8588 12.3582 12.1087 12.1084C12.3585 11.8585 12.6578 11.6636 12.9873 11.5359C13.4427 11.367 13.9238 11.2781 14.4096 11.2731C15.2162 11.2353 15.4575 11.2281 17.5009 11.2281M17.5009 9.84916C15.4232 9.84916 15.1603 9.85815 14.3466 9.89596C13.7112 9.90933 13.0829 10.0311 12.4886 10.256C11.9801 10.4523 11.5183 10.7527 11.1328 11.1381C10.7474 11.5235 10.4469 11.9852 10.2506 12.4936C10.0257 13.0879 9.90394 13.7162 9.89056 14.3515C9.85276 15.167 9.84375 15.4315 9.84375 17.5054C9.84375 19.5792 9.85276 19.8457 9.89056 20.6594C9.90394 21.2946 10.0257 21.9229 10.2506 22.5172C10.4476 23.0246 10.7483 23.4853 11.1337 23.8697C11.5191 24.2541 11.9806 24.5538 12.4886 24.7494C13.0829 24.9743 13.7112 25.0961 14.3466 25.1094C15.1622 25.1473 15.4268 25.1562 17.5009 25.1562C19.575 25.1562 19.8415 25.1562 20.6553 25.1094C21.2906 25.0961 21.9189 24.9743 22.5132 24.7494C23.0214 24.5529 23.4829 24.2524 23.868 23.867C24.2531 23.4816 24.5533 23.02 24.7494 22.5118C24.9743 21.9175 25.0961 21.2892 25.1095 20.654C25.1473 19.8385 25.1562 19.5738 25.1562 17.5C25.1562 15.4261 25.1473 15.1598 25.1095 14.3461C25.0961 13.7108 24.9743 13.0825 24.7494 12.4882C24.5531 11.9798 24.2526 11.5181 23.8672 11.1327C23.4818 10.7473 23.02 10.4469 22.5115 10.2506C21.9171 10.0257 21.2888 9.90394 20.6534 9.89056C19.8378 9.85276 19.5732 9.84375 17.4991 9.84375L17.5009 9.84916Z"/>
</mask>
<path d="M17.4991 11.2281C19.5426 11.2281 19.7838 11.2281 20.5904 11.2731C21.0762 11.2781 21.5574 11.367 22.0128 11.5359C22.3436 11.6627 22.6442 11.8573 22.8954 12.1072C23.1465 12.3571 23.3426 12.6567 23.4711 12.9869C23.6401 13.4422 23.729 13.9234 23.7339 14.4091C23.7717 15.2155 23.779 15.4568 23.779 17.5C23.779 19.5433 23.779 19.7844 23.7339 20.591C23.729 21.0766 23.6401 21.5577 23.4711 22.0131C23.3434 22.3426 23.1485 22.6418 22.8986 22.8916C22.6487 23.1414 22.3495 23.3365 22.0199 23.464C21.5645 23.633 21.0834 23.7219 20.5976 23.7269C19.7911 23.7647 19.5498 23.7719 17.5063 23.7719C15.4629 23.7719 15.2216 23.7719 14.415 23.7269C13.9293 23.7219 13.4481 23.633 12.9927 23.464C12.6632 23.3365 12.3639 23.1414 12.1141 22.8916C11.8642 22.6418 11.6692 22.3426 11.5415 22.0131C11.3726 21.5577 11.2837 21.0766 11.2787 20.591C11.2283 19.7844 11.2283 19.5433 11.2283 17.5C11.2283 15.4568 11.2283 15.2155 11.2733 14.4091C11.2783 13.9234 11.3672 13.4422 11.5361 12.9869C11.6638 12.6574 11.8588 12.3582 12.1087 12.1084C12.3585 11.8585 12.6578 11.6636 12.9873 11.5359C13.4427 11.367 13.9238 11.2781 14.4096 11.2731C15.2162 11.2353 15.4575 11.2281 17.5009 11.2281M17.5009 9.84916C15.4232 9.84916 15.1603 9.85815 14.3466 9.89596C13.7112 9.90933 13.0829 10.0311 12.4886 10.256C11.9801 10.4523 11.5183 10.7527 11.1328 11.1381C10.7474 11.5235 10.4469 11.9852 10.2506 12.4936C10.0257 13.0879 9.90394 13.7162 9.89056 14.3515C9.85276 15.167 9.84375 15.4315 9.84375 17.5054C9.84375 19.5792 9.85276 19.8457 9.89056 20.6594C9.90394 21.2946 10.0257 21.9229 10.2506 22.5172C10.4476 23.0246 10.7483 23.4853 11.1337 23.8697C11.5191 24.2541 11.9806 24.5538 12.4886 24.7494C13.0829 24.9743 13.7112 25.0961 14.3466 25.1094C15.1622 25.1473 15.4268 25.1562 17.5009 25.1562C19.575 25.1562 19.8415 25.1562 20.6553 25.1094C21.2906 25.0961 21.9189 24.9743 22.5132 24.7494C23.0214 24.5529 23.4829 24.2524 23.868 23.867C24.2531 23.4816 24.5533 23.02 24.7494 22.5118C24.9743 21.9175 25.0961 21.2892 25.1095 20.654C25.1473 19.8385 25.1562 19.5738 25.1562 17.5C25.1562 15.4261 25.1473 15.1598 25.1095 14.3461C25.0961 13.7108 24.9743 13.0825 24.7494 12.4882C24.5531 11.9798 24.2526 11.5181 23.8672 11.1327C23.4818 10.7473 23.02 10.4469 22.5115 10.2506C21.9171 10.0257 21.2888 9.90394 20.6534 9.89056C19.8378 9.85276 19.5732 9.84375 17.4991 9.84375L17.5009 9.84916Z" fill="#00586F"/>
<path d="M20.5904 11.2731L20.5737 11.573L20.5874 11.5731L20.5904 11.2731ZM22.0128 11.5359L22.1201 11.2558L22.1171 11.2547L22.0128 11.5359ZM22.8954 12.1072L23.107 11.8945L23.107 11.8945L22.8954 12.1072ZM23.4711 12.9869L23.7523 12.8825L23.7507 12.8782L23.4711 12.9869ZM23.7339 14.4091L23.4337 14.4121L23.4342 14.4231L23.7339 14.4091ZM23.7339 20.591L23.4341 20.5742L23.4339 20.5879L23.7339 20.591ZM23.4711 22.0131L23.7508 22.1215L23.7523 22.1175L23.4711 22.0131ZM22.0199 23.464L22.1243 23.7453L22.1283 23.7438L22.0199 23.464ZM20.5976 23.7269L20.5945 23.4268L20.5836 23.4273L20.5976 23.7269ZM14.415 23.7269L14.4317 23.4271L14.4181 23.427L14.415 23.7269ZM12.9927 23.464L12.8843 23.7438L12.8883 23.7453L12.9927 23.464ZM11.5415 22.0131L11.2602 22.1175L11.2618 22.1215L11.5415 22.0131ZM11.2787 20.591L11.5787 20.5879L11.5786 20.5801L11.5781 20.5723L11.2787 20.591ZM11.2733 14.4091L11.5731 14.4258L11.5733 14.4122L11.2733 14.4091ZM11.5361 12.9869L11.2564 12.8785L11.2549 12.8825L11.5361 12.9869ZM12.1087 12.1084L12.3208 12.3205L12.3208 12.3205L12.1087 12.1084ZM12.9873 11.5359L12.8829 11.2546L12.8789 11.2562L12.9873 11.5359ZM14.4096 11.2731L14.4127 11.5733L14.4236 11.5728L14.4096 11.2731ZM17.5009 9.84916V10.1492H17.9152L17.7859 9.75556L17.5009 9.84916ZM14.3466 9.89596L14.3529 10.196L14.3605 10.1956L14.3466 9.89596ZM12.4886 10.256L12.3824 9.97541L12.3805 9.97612L12.4886 10.256ZM11.1328 11.1381L10.9207 10.926L10.9207 10.926L11.1328 11.1381ZM10.2506 12.4936L9.97077 12.3856L9.97007 12.3874L10.2506 12.4936ZM9.89056 14.3515L10.1903 14.3654L10.1905 14.3578L9.89056 14.3515ZM9.89056 20.6594L10.1906 20.6531L10.1902 20.6455L9.89056 20.6594ZM10.2506 22.5172L9.97006 22.6234L9.97097 22.6257L10.2506 22.5172ZM11.1337 23.8697L10.9219 24.0821L10.9219 24.0821L11.1337 23.8697ZM12.4886 24.7494L12.3807 25.0294L12.3824 25.03L12.4886 24.7494ZM14.3466 25.1094L14.3605 24.8097L14.3529 24.8095L14.3466 25.1094ZM20.6553 25.1094L20.649 24.8093L20.638 24.8099L20.6553 25.1094ZM22.5132 24.7494L22.6194 25.03L22.6214 25.0292L22.5132 24.7494ZM24.7494 22.5118L25.0293 22.6198L25.03 22.618L24.7494 22.5118ZM25.1095 20.654L24.8097 20.6401L24.8095 20.6476L25.1095 20.654ZM25.1095 14.3461L24.8095 14.3524L24.8098 14.36L25.1095 14.3461ZM24.7494 12.4882L25.03 12.3821L25.0293 12.3802L24.7494 12.4882ZM23.8672 11.1327L23.6551 11.3448L23.6551 11.3448L23.8672 11.1327ZM22.5115 10.2506L22.6195 9.97071L22.6176 9.97001L22.5115 10.2506ZM20.6534 9.89056L20.6395 10.1903L20.6471 10.1905L20.6534 9.89056ZM17.4991 9.84375V9.54375H17.0849L17.2141 9.93734L17.4991 9.84375ZM17.4991 11.5281C19.5442 11.5281 19.7769 11.5282 20.5737 11.5726L20.6071 10.9736C19.7907 10.928 19.5409 10.9281 17.4991 10.9281V11.5281ZM20.5874 11.5731C21.0385 11.5777 21.4854 11.6603 21.9084 11.8172L22.1171 11.2547C21.6293 11.0737 21.1138 10.9785 20.5935 10.9731L20.5874 11.5731ZM21.9054 11.8161C22.1972 11.9279 22.4623 12.0995 22.6838 12.3199L23.107 11.8945C22.8261 11.6152 22.4901 11.3976 22.1201 11.2558L21.9054 11.8161ZM22.6838 12.3199C22.9053 12.5402 23.0782 12.8045 23.1915 13.0957L23.7507 12.8782C23.6071 12.509 23.3878 12.1739 23.107 11.8945L22.6838 12.3199ZM23.1898 13.0913C23.3468 13.5142 23.4293 13.961 23.4339 14.4121L24.0339 14.406C24.0286 13.8857 23.9334 13.3703 23.7523 12.8825L23.1898 13.0913ZM23.4342 14.4231C23.4717 15.2223 23.479 15.4579 23.479 17.5H24.079C24.079 15.4557 24.0717 15.2087 24.0336 14.395L23.4342 14.4231ZM23.479 17.5C23.479 19.5449 23.4789 19.7775 23.4344 20.5742L24.0335 20.6077C24.0791 19.7913 24.079 19.5416 24.079 17.5H23.479ZM23.4339 20.5879C23.4293 21.0389 23.3468 21.4858 23.1898 21.9087L23.7523 22.1175C23.9334 21.6297 24.0286 21.1142 24.0339 20.594L23.4339 20.5879ZM23.1913 21.9047C23.0787 22.1953 22.9068 22.4591 22.6865 22.6795L23.1107 23.1038C23.3901 22.8244 23.6081 22.4899 23.7508 22.1215L23.1913 21.9047ZM22.6865 22.6795C22.4661 22.8998 22.2022 23.0718 21.9116 23.1843L22.1283 23.7438C22.4968 23.6011 22.8313 23.3831 23.1107 23.1038L22.6865 22.6795ZM21.9156 23.1828C21.4926 23.3397 21.0457 23.4223 20.5945 23.427L20.6007 24.0269C21.121 24.0215 21.6364 23.9263 22.1243 23.7453L21.9156 23.1828ZM20.5836 23.4273C19.7843 23.4647 19.5487 23.4719 17.5063 23.4719V24.0719C19.5509 24.0719 19.7978 24.0647 20.6116 24.0266L20.5836 23.4273ZM17.5063 23.4719C15.4612 23.4719 15.2285 23.4718 14.4317 23.4274L14.3983 24.0265C15.2147 24.072 15.4645 24.0719 17.5063 24.0719V23.4719ZM14.4181 23.427C13.9669 23.4223 13.52 23.3397 13.097 23.1828L12.8883 23.7453C13.3762 23.9263 13.8916 24.0215 14.4119 24.0269L14.4181 23.427ZM13.101 23.1843C12.8105 23.0718 12.5465 22.8998 12.3262 22.6795L11.9019 23.1037C12.1813 23.3831 12.5159 23.6011 12.8843 23.7438L13.101 23.1843ZM12.3262 22.6795C12.1058 22.4591 11.9339 22.1953 11.8213 21.9047L11.2618 22.1215C11.4045 22.4899 11.6226 22.8244 11.9019 23.1037L12.3262 22.6795ZM11.8228 21.9087C11.6659 21.4858 11.5833 21.0389 11.5787 20.5879L10.9787 20.594C10.984 21.1143 11.0793 21.6297 11.2603 22.1175L11.8228 21.9087ZM11.5781 20.5723C11.5284 19.7767 11.5283 19.5451 11.5283 17.5H10.9283C10.9283 19.5414 10.9282 19.7922 10.9793 20.6097L11.5781 20.5723ZM11.5283 17.5C11.5283 15.4551 11.5284 15.2224 11.5728 14.4258L10.9737 14.3924C10.9282 15.2086 10.9283 15.4585 10.9283 17.5H11.5283ZM11.5733 14.4122C11.5779 13.961 11.6605 13.5142 11.8174 13.0913L11.2549 12.8825C11.0739 13.3703 10.9786 13.8857 10.9733 14.406L11.5733 14.4122ZM11.8159 13.0953C11.9285 12.8047 12.1004 12.5409 12.3208 12.3205L11.8965 11.8962C11.6172 12.1756 11.3991 12.5101 11.2564 12.8785L11.8159 13.0953ZM12.3208 12.3205C12.5411 12.1002 12.805 11.9282 13.0956 11.8157L12.8789 11.2562C12.5105 11.3989 12.1759 11.6169 11.8965 11.8962L12.3208 12.3205ZM13.0916 11.8172C13.5146 11.6603 13.9615 11.5777 14.4127 11.5731L14.4065 10.9731C13.8862 10.9785 13.3708 11.0737 12.8829 11.2547L13.0916 11.8172ZM14.4236 11.5728C15.223 11.5353 15.4585 11.5281 17.5009 11.5281V10.9281C15.4564 10.9281 15.2094 10.9353 14.3955 10.9734L14.4236 11.5728ZM17.5009 9.54916C15.4217 9.54916 15.1534 9.55815 14.3327 9.59628L14.3605 10.1956C15.1673 10.1582 15.4247 10.1492 17.5009 10.1492V9.54916ZM14.3403 9.59602C13.6708 9.61012 13.0086 9.73843 12.3824 9.97542L12.5947 10.5366C13.1571 10.3238 13.7517 10.2085 14.3529 10.1959L14.3403 9.59602ZM12.3805 9.97612C11.833 10.1874 11.3357 10.511 10.9207 10.926L11.345 11.3502C11.7008 10.9945 12.1271 10.7171 12.5966 10.5359L12.3805 9.97612ZM10.9207 10.926C10.5057 11.3409 10.1821 11.8381 9.97078 12.3856L10.5305 12.6017C10.7117 12.1323 10.9891 11.706 11.345 11.3502L10.9207 10.926ZM9.97007 12.3874C9.73305 13.0136 9.60472 13.6757 9.59063 14.3452L10.1905 14.3578C10.2032 13.7566 10.3184 13.1621 10.5312 12.5998L9.97007 12.3874ZM9.59089 14.3376C9.55276 15.16 9.54375 15.4301 9.54375 17.5054H10.1438C10.1438 15.433 10.1528 15.1739 10.1902 14.3654L9.59089 14.3376ZM9.54375 17.5054C9.54375 19.5807 9.55276 19.8526 9.59089 20.6733L10.1902 20.6455C10.1528 19.8387 10.1438 19.5778 10.1438 17.5054H9.54375ZM9.59063 20.6657C9.60472 21.3351 9.73306 21.9971 9.97007 22.6234L10.5312 22.411C10.3184 21.8486 10.2032 21.2541 10.1905 20.6531L9.59063 20.6657ZM9.97097 22.6257C10.183 23.1721 10.5069 23.6682 10.9219 24.0821L11.3456 23.6573C10.9898 23.3024 10.7121 22.8771 10.5303 22.4087L9.97097 22.6257ZM10.9219 24.0821C11.3368 24.496 11.8338 24.8187 12.3807 25.0294L12.5964 24.4694C12.1274 24.2888 11.7014 24.0122 11.3456 23.6573L10.9219 24.0821ZM12.3824 25.03C13.0086 25.267 13.6708 25.3953 14.3403 25.4094L14.3529 24.8095C13.7517 24.7969 13.1571 24.6816 12.5947 24.4688L12.3824 25.03ZM14.3327 25.4091C15.1553 25.4473 15.4253 25.4563 17.5009 25.4563V24.8562C15.4283 24.8562 15.1691 24.8473 14.3605 24.8098L14.3327 25.4091ZM17.5009 25.4563C19.5731 25.4563 19.8485 25.4563 20.6725 25.409L20.638 24.8099C19.8344 24.8562 19.5768 24.8562 17.5009 24.8562V25.4563ZM20.6616 25.4094C21.331 25.3953 21.9932 25.267 22.6194 25.03L22.4071 24.4688C21.8447 24.6816 21.2501 24.7969 20.649 24.8095L20.6616 25.4094ZM22.6214 25.0292C23.1686 24.8177 23.6655 24.4941 24.0802 24.0791L23.6558 23.655C23.3002 24.0108 22.8743 24.2882 22.4051 24.4696L22.6214 25.0292ZM24.0802 24.0791C24.4949 23.6641 24.8181 23.1671 25.0293 22.6198L24.4695 22.4038C24.2885 22.873 24.0113 23.2992 23.6558 23.655L24.0802 24.0791ZM25.03 22.618C25.2669 21.9917 25.3953 21.3297 25.4094 20.6603L24.8095 20.6476C24.7968 21.2487 24.6816 21.8432 24.4688 22.4056L25.03 22.618ZM25.4092 20.6679C25.4473 19.8454 25.4563 19.5753 25.4563 17.5H24.8562C24.8562 19.5724 24.8473 19.8316 24.8098 20.6401L25.4092 20.6679ZM25.4563 17.5C25.4563 15.4247 25.4473 15.1528 25.4092 14.3321L24.8098 14.36C24.8473 15.1667 24.8562 15.4276 24.8562 17.5H25.4563ZM25.4094 14.3397C25.3953 13.6704 25.2669 13.0082 25.03 12.3821L24.4688 12.5944C24.6816 13.1567 24.7968 13.7513 24.8095 14.3524L25.4094 14.3397ZM25.0293 12.3802C24.8179 11.8327 24.4943 11.3355 24.0793 10.9206L23.6551 11.3448C24.0109 11.7006 24.2883 12.1269 24.4695 12.5963L25.0293 12.3802ZM24.0793 10.9206C23.6643 10.5056 23.167 10.182 22.6195 9.97072L22.4035 10.5305C22.8729 10.7117 23.2993 10.9891 23.6551 11.3448L24.0793 10.9206ZM22.6176 9.97001C21.9914 9.73303 21.3292 9.60472 20.6597 9.59063L20.6471 10.1905C21.2483 10.2032 21.8429 10.3184 22.4053 10.5312L22.6176 9.97001ZM20.6673 9.59088C19.8448 9.55275 19.5747 9.54375 17.4991 9.54375V10.1438C19.5717 10.1438 19.8309 10.1528 20.6395 10.1902L20.6673 9.59088ZM17.2141 9.93734L17.2159 9.94275L17.7859 9.75556L17.7842 9.75016L17.2141 9.93734Z" fill="#00586F" mask="url(#path-1-outside-1_13_2002)"/>
<mask id="path-3-outside-2_13_2002" maskUnits="userSpaceOnUse" x="12.5709" y="12.5719" width="10" height="10" fill="black">
<rect fill="white" x="12.5709" y="12.5719" width="10" height="10"/>
<path d="M17.4994 13.5719C16.7224 13.5719 15.9629 13.8023 15.3169 14.2339C14.6708 14.6655 14.1673 15.279 13.87 15.9967C13.5726 16.7145 13.4948 17.5043 13.6464 18.2662C13.798 19.0282 14.1721 19.7281 14.7215 20.2775C15.2709 20.8268 15.971 21.2009 16.733 21.3525C17.495 21.5041 18.285 21.4263 19.0028 21.129C19.7207 20.8317 20.3342 20.3282 20.7659 19.6823C21.1975 19.0363 21.4279 18.2768 21.4279 17.4999C21.4279 16.4582 21.014 15.459 20.2773 14.7224C19.5405 13.9858 18.5414 13.5719 17.4994 13.5719ZM17.4994 20.0526C16.9949 20.0526 16.5018 19.9031 16.0823 19.6229C15.6627 19.3426 15.3358 18.9443 15.1426 18.4783C14.9495 18.0123 14.8989 17.4996 14.9971 17.0047C15.0954 16.51 15.3382 16.0554 15.6949 15.6986C16.0515 15.3418 16.5059 15.0988 17.0006 15.0001C17.4953 14.9014 18.0083 14.9517 18.4745 15.1445C18.9407 15.3373 19.3393 15.664 19.6198 16.0832C19.9003 16.5025 20.0503 16.9955 20.0506 17.4999C20.0501 18.1763 19.7812 18.8248 19.3028 19.3031C18.8245 19.7814 18.1759 20.0503 17.4994 20.0508V20.0526Z"/>
</mask>
<path d="M17.4994 13.5719C16.7224 13.5719 15.9629 13.8023 15.3169 14.2339C14.6708 14.6655 14.1673 15.279 13.87 15.9967C13.5726 16.7145 13.4948 17.5043 13.6464 18.2662C13.798 19.0282 14.1721 19.7281 14.7215 20.2775C15.2709 20.8268 15.971 21.2009 16.733 21.3525C17.495 21.5041 18.285 21.4263 19.0028 21.129C19.7207 20.8317 20.3342 20.3282 20.7659 19.6823C21.1975 19.0363 21.4279 18.2768 21.4279 17.4999C21.4279 16.4582 21.014 15.459 20.2773 14.7224C19.5405 13.9858 18.5414 13.5719 17.4994 13.5719ZM17.4994 20.0526C16.9949 20.0526 16.5018 19.9031 16.0823 19.6229C15.6627 19.3426 15.3358 18.9443 15.1426 18.4783C14.9495 18.0123 14.8989 17.4996 14.9971 17.0047C15.0954 16.51 15.3382 16.0554 15.6949 15.6986C16.0515 15.3418 16.5059 15.0988 17.0006 15.0001C17.4953 14.9014 18.0083 14.9517 18.4745 15.1445C18.9407 15.3373 19.3393 15.664 19.6198 16.0832C19.9003 16.5025 20.0503 16.9955 20.0506 17.4999C20.0501 18.1763 19.7812 18.8248 19.3028 19.3031C18.8245 19.7814 18.1759 20.0503 17.4994 20.0508V20.0526Z" fill="#00586F"/>
<path d="M17.4994 13.5719C16.7224 13.5719 15.9629 13.8023 15.3169 14.2339C14.6708 14.6655 14.1673 15.279 13.87 15.9967C13.5726 16.7145 13.4948 17.5043 13.6464 18.2662C13.798 19.0282 14.1721 19.7281 14.7215 20.2775C15.2709 20.8268 15.971 21.2009 16.733 21.3525C17.495 21.5041 18.285 21.4263 19.0028 21.129C19.7207 20.8317 20.3342 20.3282 20.7659 19.6823C21.1975 19.0363 21.4279 18.2768 21.4279 17.4999C21.4279 16.4582 21.014 15.459 20.2773 14.7224C19.5405 13.9858 18.5414 13.5719 17.4994 13.5719ZM17.4994 20.0526C16.9949 20.0526 16.5018 19.9031 16.0823 19.6229C15.6627 19.3426 15.3358 18.9443 15.1426 18.4783C14.9495 18.0123 14.8989 17.4996 14.9971 17.0047C15.0954 16.51 15.3382 16.0554 15.6949 15.6986C16.0515 15.3418 16.5059 15.0988 17.0006 15.0001C17.4953 14.9014 18.0083 14.9517 18.4745 15.1445C18.9407 15.3373 19.3393 15.664 19.6198 16.0832C19.9003 16.5025 20.0503 16.9955 20.0506 17.4999C20.0501 18.1763 19.7812 18.8248 19.3028 19.3031C18.8245 19.7814 18.1759 20.0503 17.4994 20.0508V20.0526Z" stroke="#00586F" stroke-width="0.6" mask="url(#path-3-outside-2_13_2002)"/>
<path d="M21.5846 14.3334C22.0917 14.3334 22.5028 13.9223 22.5028 13.4153C22.5028 12.9082 22.0917 12.4972 21.5846 12.4972C21.0775 12.4972 20.6664 12.9082 20.6664 13.4153C20.6664 13.9223 21.0775 14.3334 21.5846 14.3334Z" fill="#00586F"/>
<path d="M17.5 6.12497C11.2206 6.12497 6.12497 11.2206 6.12497 17.5C6.12497 23.7794 11.2206 28.875 17.5 28.875C23.7794 28.875 28.875 23.7794 28.875 17.5C28.875 11.2206 23.7794 6.12497 17.5 6.12497ZM17.5 3.28125C25.3402 3.28125 31.7188 9.65976 31.7188 17.5C31.7188 25.3402 25.3402 31.7188 17.5 31.7188C9.65976 31.7188 3.28125 25.3402 3.28125 17.5C3.28125 9.65976 9.65976 3.28125 17.5 3.28125Z" fill="#00586F"/>
</svg>
