<svg width="35" height="35" viewBox="0 0 35 35" fill="none" xmlns="http://www.w3.org/2000/svg">
<mask id="path-1-inside-1_3009_12165" fill="white">
<path d="M17.4991 11.2281C19.5426 11.2281 19.7838 11.2281 20.5904 11.2731C21.0762 11.2781 21.5574 11.367 22.0128 11.5359C22.3436 11.6627 22.6442 11.8573 22.8954 12.1072C23.1465 12.3571 23.3426 12.6567 23.4711 12.9869C23.6401 13.4422 23.729 13.9234 23.7339 14.4091C23.7717 15.2155 23.779 15.4568 23.779 17.5C23.779 19.5433 23.779 19.7844 23.7339 20.591C23.729 21.0766 23.6401 21.5577 23.4711 22.0131C23.3434 22.3426 23.1485 22.6418 22.8986 22.8916C22.6487 23.1414 22.3495 23.3365 22.0199 23.464C21.5645 23.633 21.0834 23.7219 20.5976 23.7269C19.7911 23.7647 19.5498 23.7719 17.5063 23.7719C15.4629 23.7719 15.2216 23.7719 14.415 23.7269C13.9293 23.7219 13.4481 23.633 12.9927 23.464C12.6632 23.3365 12.3639 23.1414 12.1141 22.8916C11.8642 22.6418 11.6692 22.3426 11.5415 22.0131C11.3726 21.5577 11.2837 21.0766 11.2787 20.591C11.2283 19.7844 11.2283 19.5433 11.2283 17.5C11.2283 15.4568 11.2283 15.2155 11.2733 14.4091C11.2783 13.9234 11.3672 13.4422 11.5361 12.9869C11.6638 12.6574 11.8588 12.3582 12.1087 12.1084C12.3585 11.8585 12.6578 11.6636 12.9873 11.5359C13.4427 11.367 13.9238 11.2781 14.4096 11.2731C15.2162 11.2353 15.4575 11.2281 17.5009 11.2281M17.5009 9.84916C15.4232 9.84916 15.1603 9.85815 14.3466 9.89596C13.7112 9.90933 13.0829 10.0311 12.4886 10.256C11.9801 10.4523 11.5183 10.7527 11.1328 11.1381C10.7474 11.5235 10.4469 11.9852 10.2506 12.4936C10.0257 13.0879 9.90394 13.7162 9.89056 14.3515C9.85276 15.167 9.84375 15.4315 9.84375 17.5054C9.84375 19.5792 9.85276 19.8457 9.89056 20.6594C9.90394 21.2946 10.0257 21.9229 10.2506 22.5172C10.4476 23.0246 10.7483 23.4853 11.1337 23.8697C11.5191 24.2541 11.9806 24.5538 12.4886 24.7494C13.0829 24.9743 13.7112 25.0961 14.3466 25.1094C15.1622 25.1473 15.4268 25.1562 17.5009 25.1562C19.575 25.1562 19.8415 25.1562 20.6553 25.1094C21.2906 25.0961 21.9189 24.9743 22.5132 24.7494C23.0214 24.5529 23.4829 24.2524 23.868 23.867C24.2531 23.4816 24.5533 23.02 24.7494 22.5118C24.9743 21.9175 25.0961 21.2892 25.1095 20.654C25.1473 19.8385 25.1562 19.5738 25.1562 17.5C25.1562 15.4261 25.1473 15.1598 25.1095 14.3461C25.0961 13.7108 24.9743 13.0825 24.7494 12.4882C24.5531 11.9798 24.2526 11.5181 23.8672 11.1327C23.4818 10.7473 23.02 10.4469 22.5115 10.2506C21.9171 10.0257 21.2888 9.90394 20.6534 9.89056C19.8378 9.85276 19.5732 9.84375 17.4991 9.84375L17.5009 9.84916Z"/>
<path d="M17.4994 13.572C16.7224 13.572 15.9629 13.8023 15.3169 14.234C14.6708 14.6655 14.1673 15.2791 13.87 15.9968C13.5726 16.7146 13.4948 17.5043 13.6464 18.2663C13.798 19.0282 14.1721 19.7282 14.7215 20.2775C15.2709 20.8269 15.971 21.201 16.733 21.3526C17.495 21.5041 18.285 21.4263 19.0028 21.129C19.7207 20.8317 20.3342 20.3283 20.7659 19.6823C21.1975 19.0364 21.4279 18.2769 21.4279 17.5C21.4279 16.4582 21.0141 15.4591 20.2773 14.7225C19.5406 13.9858 18.5414 13.572 17.4994 13.572ZM17.4994 20.0526C16.995 20.0526 16.5018 19.9031 16.0823 19.6229C15.6628 19.3427 15.3358 18.9444 15.1426 18.4784C14.9495 18.0124 14.8989 17.4996 14.9971 17.0048C15.0955 16.5101 15.3382 16.0555 15.6949 15.6987C16.0515 15.3419 16.5059 15.0988 17.0007 15.0001C17.4954 14.9015 18.0083 14.9518 18.4745 15.1445C18.9407 15.3374 19.3393 15.6641 19.6198 16.0833C19.9004 16.5026 20.0503 16.9955 20.0506 17.5C20.0501 18.1764 19.7812 18.8249 19.3029 19.3032C18.8245 19.7815 18.1759 20.0504 17.4994 20.0509V20.0526Z"/>
<path d="M21.5847 14.3334C22.0918 14.3334 22.5029 13.9223 22.5029 13.4153C22.5029 12.9082 22.0918 12.4971 21.5847 12.4971C21.0775 12.4971 20.6664 12.9082 20.6664 13.4153C20.6664 13.9223 21.0775 14.3334 21.5847 14.3334Z"/>
<path d="M17.5 6.12497C11.2206 6.12497 6.12497 11.2206 6.12497 17.5C6.12497 23.7794 11.2206 28.875 17.5 28.875C23.7794 28.875 28.875 23.7794 28.875 17.5C28.875 11.2206 23.7794 6.12497 17.5 6.12497ZM17.5 3.28125C25.3402 3.28125 31.7188 9.65976 31.7188 17.5C31.7188 25.3402 25.3402 31.7188 17.5 31.7188C9.65976 31.7188 3.28125 25.3402 3.28125 17.5C3.28125 9.65976 9.65976 3.28125 17.5 3.28125Z"/>
</mask>
<path d="M17.4991 11.2281C19.5426 11.2281 19.7838 11.2281 20.5904 11.2731C21.0762 11.2781 21.5574 11.367 22.0128 11.5359C22.3436 11.6627 22.6442 11.8573 22.8954 12.1072C23.1465 12.3571 23.3426 12.6567 23.4711 12.9869C23.6401 13.4422 23.729 13.9234 23.7339 14.4091C23.7717 15.2155 23.779 15.4568 23.779 17.5C23.779 19.5433 23.779 19.7844 23.7339 20.591C23.729 21.0766 23.6401 21.5577 23.4711 22.0131C23.3434 22.3426 23.1485 22.6418 22.8986 22.8916C22.6487 23.1414 22.3495 23.3365 22.0199 23.464C21.5645 23.633 21.0834 23.7219 20.5976 23.7269C19.7911 23.7647 19.5498 23.7719 17.5063 23.7719C15.4629 23.7719 15.2216 23.7719 14.415 23.7269C13.9293 23.7219 13.4481 23.633 12.9927 23.464C12.6632 23.3365 12.3639 23.1414 12.1141 22.8916C11.8642 22.6418 11.6692 22.3426 11.5415 22.0131C11.3726 21.5577 11.2837 21.0766 11.2787 20.591C11.2283 19.7844 11.2283 19.5433 11.2283 17.5C11.2283 15.4568 11.2283 15.2155 11.2733 14.4091C11.2783 13.9234 11.3672 13.4422 11.5361 12.9869C11.6638 12.6574 11.8588 12.3582 12.1087 12.1084C12.3585 11.8585 12.6578 11.6636 12.9873 11.5359C13.4427 11.367 13.9238 11.2781 14.4096 11.2731C15.2162 11.2353 15.4575 11.2281 17.5009 11.2281M17.5009 9.84916C15.4232 9.84916 15.1603 9.85815 14.3466 9.89596C13.7112 9.90933 13.0829 10.0311 12.4886 10.256C11.9801 10.4523 11.5183 10.7527 11.1328 11.1381C10.7474 11.5235 10.4469 11.9852 10.2506 12.4936C10.0257 13.0879 9.90394 13.7162 9.89056 14.3515C9.85276 15.167 9.84375 15.4315 9.84375 17.5054C9.84375 19.5792 9.85276 19.8457 9.89056 20.6594C9.90394 21.2946 10.0257 21.9229 10.2506 22.5172C10.4476 23.0246 10.7483 23.4853 11.1337 23.8697C11.5191 24.2541 11.9806 24.5538 12.4886 24.7494C13.0829 24.9743 13.7112 25.0961 14.3466 25.1094C15.1622 25.1473 15.4268 25.1562 17.5009 25.1562C19.575 25.1562 19.8415 25.1562 20.6553 25.1094C21.2906 25.0961 21.9189 24.9743 22.5132 24.7494C23.0214 24.5529 23.4829 24.2524 23.868 23.867C24.2531 23.4816 24.5533 23.02 24.7494 22.5118C24.9743 21.9175 25.0961 21.2892 25.1095 20.654C25.1473 19.8385 25.1562 19.5738 25.1562 17.5C25.1562 15.4261 25.1473 15.1598 25.1095 14.3461C25.0961 13.7108 24.9743 13.0825 24.7494 12.4882C24.5531 11.9798 24.2526 11.5181 23.8672 11.1327C23.4818 10.7473 23.02 10.4469 22.5115 10.2506C21.9171 10.0257 21.2888 9.90394 20.6534 9.89056C19.8378 9.85276 19.5732 9.84375 17.4991 9.84375L17.5009 9.84916Z" fill="#00586F"/>
<path d="M17.4994 13.572C16.7224 13.572 15.9629 13.8023 15.3169 14.234C14.6708 14.6655 14.1673 15.2791 13.87 15.9968C13.5726 16.7146 13.4948 17.5043 13.6464 18.2663C13.798 19.0282 14.1721 19.7282 14.7215 20.2775C15.2709 20.8269 15.971 21.201 16.733 21.3526C17.495 21.5041 18.285 21.4263 19.0028 21.129C19.7207 20.8317 20.3342 20.3283 20.7659 19.6823C21.1975 19.0364 21.4279 18.2769 21.4279 17.5C21.4279 16.4582 21.0141 15.4591 20.2773 14.7225C19.5406 13.9858 18.5414 13.572 17.4994 13.572ZM17.4994 20.0526C16.995 20.0526 16.5018 19.9031 16.0823 19.6229C15.6628 19.3427 15.3358 18.9444 15.1426 18.4784C14.9495 18.0124 14.8989 17.4996 14.9971 17.0048C15.0955 16.5101 15.3382 16.0555 15.6949 15.6987C16.0515 15.3419 16.5059 15.0988 17.0007 15.0001C17.4954 14.9015 18.0083 14.9518 18.4745 15.1445C18.9407 15.3374 19.3393 15.6641 19.6198 16.0833C19.9004 16.5026 20.0503 16.9955 20.0506 17.5C20.0501 18.1764 19.7812 18.8249 19.3029 19.3032C18.8245 19.7815 18.1759 20.0504 17.4994 20.0509V20.0526Z" fill="#00586F"/>
<path d="M21.5847 14.3334C22.0918 14.3334 22.5029 13.9223 22.5029 13.4153C22.5029 12.9082 22.0918 12.4971 21.5847 12.4971C21.0775 12.4971 20.6664 12.9082 20.6664 13.4153C20.6664 13.9223 21.0775 14.3334 21.5847 14.3334Z" fill="#00586F"/>
<path d="M17.5 6.12497C11.2206 6.12497 6.12497 11.2206 6.12497 17.5C6.12497 23.7794 11.2206 28.875 17.5 28.875C23.7794 28.875 28.875 23.7794 28.875 17.5C28.875 11.2206 23.7794 6.12497 17.5 6.12497ZM17.5 3.28125C25.3402 3.28125 31.7188 9.65976 31.7188 17.5C31.7188 25.3402 25.3402 31.7188 17.5 31.7188C9.65976 31.7188 3.28125 25.3402 3.28125 17.5C3.28125 9.65976 9.65976 3.28125 17.5 3.28125Z" fill="#00586F"/>
<path d="M20.5904 11.2731L20.5347 12.2716L20.5574 12.2728L20.5802 12.2731L20.5904 11.2731ZM22.0128 11.5359L22.3706 10.6021L22.3606 10.5984L22.0128 11.5359ZM22.8954 12.1072L23.6008 11.3983L23.6007 11.3982L22.8954 12.1072ZM23.4711 12.9869L24.4086 12.6389L24.4059 12.6316L24.403 12.6244L23.4711 12.9869ZM23.7339 14.4091L22.734 14.4193L22.7342 14.4376L22.735 14.4559L23.7339 14.4091ZM23.7339 20.591L22.7355 20.5352L22.7342 20.558L22.734 20.5808L23.7339 20.591ZM23.4711 22.0131L24.4035 22.3744L24.4061 22.3677L24.4086 22.3611L23.4711 22.0131ZM22.8986 22.8916L22.1915 22.1844L22.1915 22.1844L22.8986 22.8916ZM22.0199 23.464L22.3679 24.4017L22.381 24.3966L22.0199 23.464ZM20.5976 23.7269L20.5873 22.727L20.569 22.7272L20.5508 22.728L20.5976 23.7269ZM14.415 23.7269L14.4706 22.7285L14.448 22.7272L14.4253 22.727L14.415 23.7269ZM12.9927 23.464L12.6315 24.3967L12.6448 24.4016L12.9927 23.464ZM12.1141 22.8916L12.8211 22.1845H12.8211L12.1141 22.8916ZM11.5415 22.0131L10.604 22.361L10.6065 22.3677L10.6091 22.3744L11.5415 22.0131ZM11.2787 20.591L12.2786 20.5807L12.2784 20.5546L12.2767 20.5286L11.2787 20.591ZM11.2733 14.4091L12.2717 14.4648L12.273 14.4421L12.2732 14.4193L11.2733 14.4091ZM11.5361 12.9869L10.6037 12.6256L10.6011 12.6323L10.5986 12.639L11.5361 12.9869ZM12.1087 12.1084L12.8157 12.8155L12.8157 12.8155L12.1087 12.1084ZM12.9873 11.5359L12.6394 10.5984L12.6327 10.6009L12.626 10.6035L12.9873 11.5359ZM14.4096 11.2731L14.4198 12.2731L14.4381 12.2729L14.4564 12.272L14.4096 11.2731ZM17.5009 9.84916V10.8492H18.8818L18.451 9.53717L17.5009 9.84916ZM14.3466 9.89596L14.3677 10.8957L14.3803 10.8955L14.393 10.8949L14.3466 9.89596ZM12.4886 10.256L12.1346 9.32071L12.1285 9.32307L12.4886 10.256ZM11.1328 11.1381L10.4258 10.4309L10.4258 10.4309L11.1328 11.1381ZM10.2506 12.4936L9.31773 12.1335L9.3154 12.1397L10.2506 12.4936ZM9.89056 14.3515L10.8895 14.3978L10.8901 14.3852L10.8903 14.3725L9.89056 14.3515ZM9.89056 20.6594L10.8903 20.6383L10.8901 20.6257L10.8895 20.613L9.89056 20.6594ZM10.2506 22.5172L9.31536 22.8712L9.31839 22.879L10.2506 22.5172ZM11.1337 23.8697L10.4275 24.5777L10.4275 24.5778L11.1337 23.8697ZM12.4886 24.7494L12.1292 25.6826L12.1346 25.6847L12.4886 24.7494ZM14.3466 25.1094L14.393 24.1105L14.3803 24.1099L14.3676 24.1097L14.3466 25.1094ZM20.6553 25.1094L20.6342 24.1097L20.616 24.1101L20.5978 24.1111L20.6553 25.1094ZM22.5132 24.7494L22.8672 25.6847L22.8738 25.6821L22.5132 24.7494ZM23.868 23.867L23.1606 23.1602L23.1606 23.1602L23.868 23.867ZM24.7494 22.5118L25.6824 22.8718L25.6847 22.8657L24.7494 22.5118ZM25.1095 20.654L24.1106 20.6077L24.11 20.6203L24.1097 20.6329L25.1095 20.654ZM25.1095 14.3461L24.1097 14.3672L24.11 14.3798L24.1106 14.3925L25.1095 14.3461ZM24.7494 12.4882L25.6847 12.1343L25.6823 12.1281L24.7494 12.4882ZM23.8672 11.1327L23.1601 11.8398L23.1601 11.8398L23.8672 11.1327ZM22.5115 10.2506L22.8715 9.31765L22.8654 9.31532L22.5115 10.2506ZM20.6534 9.89056L20.6071 10.8895L20.6197 10.8901L20.6324 10.8903L20.6534 9.89056ZM17.4991 9.84375V8.84375H16.1182L16.549 10.1557L17.4991 9.84375ZM15.3169 14.234L15.8723 15.0655L15.8724 15.0655L15.3169 14.234ZM13.87 15.9968L12.9461 15.614L12.9461 15.614L13.87 15.9968ZM13.6464 18.2663L12.6656 18.4614L13.6464 18.2663ZM16.733 21.3526L16.5379 22.3334L16.538 22.3334L16.733 21.3526ZM19.0028 21.129L18.6202 20.2051L18.6201 20.2051L19.0028 21.129ZM20.2773 14.7225L20.9844 14.0153L20.9844 14.0153L20.2773 14.7225ZM17.4994 20.0526V21.0526H18.4994V20.0526H17.4994ZM16.0823 19.6229L15.5268 20.4544L15.5269 20.4545L16.0823 19.6229ZM15.1426 18.4784L14.2188 18.8612L14.2188 18.8613L15.1426 18.4784ZM14.9971 17.0048L14.0163 16.8099L14.0163 16.8101L14.9971 17.0048ZM15.6949 15.6987L14.9876 14.9917L15.6949 15.6987ZM17.0007 15.0001L16.8051 14.0194L16.805 14.0194L17.0007 15.0001ZM18.4745 15.1445L18.8567 14.2205L18.8566 14.2204L18.4745 15.1445ZM19.6198 16.0833L20.451 15.5272L20.4509 15.5271L19.6198 16.0833ZM20.0506 17.5L21.0506 17.5007V17.4994L20.0506 17.5ZM19.3029 19.3032L18.5958 18.5961H18.5958L19.3029 19.3032ZM17.4994 20.0509L17.4988 19.0509L16.4994 19.0515V20.0509H17.4994ZM17.4991 12.2281C19.5481 12.2281 19.7609 12.2284 20.5347 12.2716L20.6461 10.2747C19.8068 10.2278 19.537 10.2281 17.4991 10.2281V12.2281ZM20.5802 12.2731C20.9507 12.2769 21.3176 12.3447 21.665 12.4735L22.3606 10.5984C21.7971 10.3893 21.2017 10.2793 20.6007 10.2732L20.5802 12.2731ZM21.6549 12.4697C21.8555 12.5466 22.0378 12.6646 22.1902 12.8162L23.6007 11.3982C23.2507 11.0501 22.8318 10.7789 22.3706 10.6022L21.6549 12.4697ZM22.1901 12.8161C22.3424 12.9676 22.4612 13.1493 22.5391 13.3494L24.403 12.6244C24.224 12.1642 23.9507 11.7466 23.6008 11.3983L22.1901 12.8161ZM22.5336 13.3349C22.6624 13.682 22.7302 14.0489 22.734 14.4193L24.7339 14.3989C24.7278 13.7979 24.6177 13.2025 24.4086 12.6389L22.5336 13.3349ZM22.735 14.4559C22.7717 15.2382 22.779 15.4604 22.779 17.5H24.779C24.779 15.4532 24.7718 15.1929 24.7328 14.3622L22.735 14.4559ZM22.779 17.5C22.779 19.5488 22.7787 19.7615 22.7355 20.5352L24.7324 20.6468C24.7793 19.8074 24.779 19.5377 24.779 17.5H22.779ZM22.734 20.5808C22.7302 20.9511 22.6624 21.318 22.5336 21.6651L24.4086 22.3611C24.6177 21.7975 24.7278 21.2021 24.7339 20.6011L22.734 20.5808ZM22.5386 21.6518C22.4612 21.8516 22.343 22.033 22.1915 22.1844L23.6056 23.5988C23.9539 23.2505 24.2256 22.8335 24.4035 22.3744L22.5386 21.6518ZM22.1915 22.1844C22.0399 22.336 21.8585 22.4542 21.6589 22.5315L22.381 24.3966C22.8404 24.2187 23.2575 23.9469 23.6056 23.5988L22.1915 22.1844ZM21.6721 22.5265C21.3248 22.6553 20.9578 22.7232 20.5873 22.727L20.6079 24.7269C21.2089 24.7207 21.8042 24.6107 22.3678 24.4016L21.6721 22.5265ZM20.5508 22.728C19.7685 22.7647 19.5463 22.7719 17.5063 22.7719V24.7719C19.5534 24.7719 19.8136 24.7647 20.6444 24.7258L20.5508 22.728ZM17.5063 22.7719C15.4574 22.7719 15.2445 22.7716 14.4706 22.7285L14.3594 24.7254C15.1987 24.7722 15.4684 24.7719 17.5063 24.7719V22.7719ZM14.4253 22.727C14.0548 22.7232 13.6878 22.6553 13.3405 22.5265L12.6448 24.4016C13.2084 24.6107 13.8037 24.7207 14.4047 24.7269L14.4253 22.727ZM13.3538 22.5315C13.1541 22.4542 12.9727 22.336 12.8211 22.1845L11.407 23.5987C11.7552 23.9469 12.1722 24.2187 12.6316 24.3966L13.3538 22.5315ZM12.8211 22.1845C12.6696 22.033 12.5514 21.8516 12.474 21.6518L10.6091 22.3744C10.787 22.8336 11.0588 23.2506 11.407 23.5987L12.8211 22.1845ZM12.4791 21.6652C12.3502 21.318 12.2824 20.9511 12.2786 20.5807L10.2787 20.6012C10.2849 21.2021 10.3949 21.7975 10.604 22.361L12.4791 21.6652ZM12.2767 20.5286C12.2286 19.7587 12.2283 19.5494 12.2283 17.5H10.2283C10.2283 19.5371 10.2279 19.8102 10.2806 20.6533L12.2767 20.5286ZM12.2283 17.5C12.2283 15.4513 12.2285 15.2385 12.2717 14.4648L10.2748 14.3534C10.228 15.1926 10.2283 15.4623 10.2283 17.5H12.2283ZM12.2732 14.4193C12.277 14.0489 12.3448 13.682 12.4737 13.3348L10.5986 12.639C10.3895 13.2025 10.2795 13.7979 10.2733 14.3989L12.2732 14.4193ZM12.4686 13.3482C12.546 13.1484 12.6642 12.967 12.8157 12.8155L11.4016 11.4012C11.0534 11.7494 10.7816 12.1664 10.6037 12.6256L12.4686 13.3482ZM12.8157 12.8155C12.9672 12.664 13.1487 12.5458 13.3485 12.4684L12.626 10.6035C12.1669 10.7813 11.7498 11.0531 11.4016 11.4012L12.8157 12.8155ZM13.3351 12.4735C13.6824 12.3447 14.0494 12.2769 14.4198 12.2731L14.3993 10.2732C13.7983 10.2793 13.203 10.3893 12.6394 10.5984L13.3351 12.4735ZM14.4564 12.272C15.2388 12.2353 15.461 12.2281 17.5009 12.2281V10.2281C15.4539 10.2281 15.1936 10.2353 14.3628 10.2742L14.4564 12.272ZM17.5009 8.84916C15.4183 8.84916 15.1372 8.85815 14.3002 8.89704L14.393 10.8949C15.1835 10.8582 15.4281 10.8492 17.5009 10.8492V8.84916ZM14.3256 8.89618C13.5764 8.91195 12.8354 9.05553 12.1346 9.32073L12.8425 11.1913C13.3303 11.0067 13.8461 10.9067 14.3677 10.8957L14.3256 8.89618ZM12.1285 9.32307C11.4899 9.56956 10.9099 9.94694 10.4258 10.4309L11.8399 11.8452C12.1267 11.5585 12.4703 11.335 12.8486 11.1889L12.1285 9.32307ZM10.4258 10.4309C9.9417 10.915 9.56427 11.4949 9.31775 12.1335L11.1835 12.8538C11.3296 12.4755 11.5532 12.132 11.8399 11.8452L10.4258 10.4309ZM9.3154 12.1397C9.05017 12.8404 8.90656 13.5813 8.89079 14.3304L10.8903 14.3725C10.9013 13.8511 11.0013 13.3354 11.1859 12.8476L9.3154 12.1397ZM8.89164 14.3052C8.85275 15.1438 8.84375 15.4266 8.84375 17.5054H10.8438C10.8438 15.4365 10.8528 15.1901 10.8895 14.3978L8.89164 14.3052ZM8.84375 17.5054C8.84375 19.5842 8.85275 19.8688 8.89164 20.7058L10.8895 20.613C10.8528 19.8226 10.8438 19.5743 10.8438 17.5054H8.84375ZM8.89079 20.6804C8.90656 21.4295 9.05017 22.1704 9.31539 22.8712L11.1859 22.1632C11.0013 21.6754 10.9013 21.1597 10.8903 20.6383L8.89079 20.6804ZM9.31839 22.879C9.56571 23.5163 9.94348 24.0949 10.4275 24.5777L11.84 23.1618C11.5532 22.8757 11.3294 22.5329 11.1829 22.1554L9.31839 22.879ZM10.4275 24.5778C10.9116 25.0605 11.4911 25.4369 12.1292 25.6826L12.8479 23.8162C12.47 23.6707 12.1267 23.4477 11.8399 23.1617L10.4275 24.5778ZM12.1346 25.6847C12.8354 25.9499 13.5763 26.0935 14.3256 26.1092L14.3676 24.1097C13.8461 24.0987 13.3303 23.9987 12.8425 23.8141L12.1346 25.6847ZM14.3003 26.1084C15.1391 26.1473 15.4219 26.1562 17.5009 26.1562V24.1562C15.4318 24.1562 15.1853 24.1473 14.393 24.1105L14.3003 26.1084ZM17.5009 26.1562C19.5688 26.1562 19.865 26.1565 20.7127 26.1078L20.5978 24.1111C19.8179 24.1559 19.5811 24.1562 17.5009 24.1562V26.1562ZM20.6763 26.1092C21.4255 26.0935 22.1664 25.9499 22.8672 25.6847L22.1593 23.8141C21.6714 23.9987 21.1557 24.0987 20.6342 24.1097L20.6763 26.1092ZM22.8738 25.6821C23.5121 25.4354 24.0916 25.058 24.5753 24.5739L23.1606 23.1602C22.8741 23.4469 22.5308 23.6705 22.1526 23.8167L22.8738 25.6821ZM24.5753 24.5739C25.059 24.0899 25.4361 23.5101 25.6824 22.8717L23.8164 22.1518C23.6705 22.53 23.4471 22.8734 23.1606 23.1602L24.5753 24.5739ZM25.6847 22.8657C25.9498 22.165 26.0934 21.4242 26.1093 20.6751L24.1097 20.6329C24.0987 21.1543 23.9987 21.67 23.8141 22.1579L25.6847 22.8657ZM26.1084 20.7003C26.1473 19.8616 26.1562 19.5788 26.1562 17.5H24.1562C24.1562 19.5689 24.1473 19.8154 24.1106 20.6077L26.1084 20.7003ZM26.1562 17.5C26.1562 15.4213 26.1473 15.1367 26.1084 14.2996L24.1106 14.3925C24.1473 15.1829 24.1562 15.431 24.1562 17.5H26.1562ZM26.1093 14.3249C26.0934 13.5759 25.9498 12.835 25.6847 12.1343L23.8141 12.8422C23.9987 13.33 24.0987 13.8458 24.1097 14.3672L26.1093 14.3249ZM25.6823 12.1281C25.4358 11.4895 25.0583 10.9096 24.5743 10.4256L23.1601 11.8398C23.4469 12.1266 23.6705 12.4701 23.8165 12.8484L25.6823 12.1281ZM24.5743 10.4256C24.0902 9.94152 23.5102 9.56415 22.8715 9.31767L22.1514 11.1835C22.5298 11.3296 22.8734 11.5531 23.1601 11.8398L24.5743 10.4256ZM22.8654 9.31532C22.1646 9.05013 21.4237 8.90655 20.6745 8.89078L20.6324 10.8903C21.1539 10.9013 21.6697 11.0013 22.1576 11.1859L22.8654 9.31532ZM20.6997 8.89163C19.8609 8.85275 19.5782 8.84375 17.4991 8.84375V10.8438C19.5682 10.8438 19.8147 10.8528 20.6071 10.8895L20.6997 8.89163ZM16.549 10.1557L16.5508 10.1611L18.451 9.53717L18.4492 9.53176L16.549 10.1557ZM17.4994 12.572C16.5247 12.572 15.5718 12.861 14.7613 13.4025L15.8724 15.0655C16.354 14.7437 16.9202 14.572 17.4994 14.572V12.572ZM14.7614 13.4024C13.9508 13.9439 13.3192 14.7136 12.9461 15.614L14.7938 16.3795C15.0155 15.8445 15.3908 15.3872 15.8723 15.0655L14.7614 13.4024ZM12.9461 15.614C12.5731 16.5146 12.4755 17.5054 12.6656 18.4614L14.6272 18.0712C14.5142 17.5032 14.5722 16.9145 14.7939 16.3795L12.9461 15.614ZM12.6656 18.4614C12.8558 19.4173 13.3252 20.2955 14.0145 20.9847L15.4286 19.5704C15.0191 19.1609 14.7402 18.6392 14.6272 18.0712L12.6656 18.4614ZM14.0145 20.9847C14.7038 21.6739 15.582 22.1432 16.5379 22.3334L16.9281 20.3718C16.36 20.2588 15.8381 19.9799 15.4286 19.5704L14.0145 20.9847ZM16.538 22.3334C17.4939 22.5235 18.4849 22.4259 19.3855 22.0529L18.6201 20.2051C18.0851 20.4268 17.4962 20.4848 16.9281 20.3718L16.538 22.3334ZM19.3854 22.0529C20.286 21.68 21.0558 21.0483 21.5973 20.2379L19.9344 19.1267C19.6127 19.6082 19.1553 19.9835 18.6202 20.2051L19.3854 22.0529ZM21.5973 20.2379C22.1388 19.4275 22.4279 18.4747 22.4279 17.5H20.4279C20.4279 18.079 20.2562 18.6452 19.9344 19.1267L21.5973 20.2379ZM22.4279 17.5C22.4279 16.193 21.9087 14.9395 20.9844 14.0153L19.5703 15.4296C20.1194 15.9787 20.4279 16.7235 20.4279 17.5H22.4279ZM20.9844 14.0153C20.0601 13.0912 18.8066 12.572 17.4994 12.572V14.572C18.2762 14.572 19.021 14.8805 19.5703 15.4296L20.9844 14.0153ZM17.4994 19.0526C17.1926 19.0526 16.8928 18.9617 16.6377 18.7913L15.5269 20.4545C16.1108 20.8445 16.7973 21.0526 17.4994 21.0526V19.0526ZM16.6378 18.7914C16.3826 18.621 16.1838 18.3788 16.0664 18.0954L14.2188 18.8613C14.4877 19.51 14.9429 20.0643 15.5268 20.4544L16.6378 18.7914ZM16.0664 18.0956C15.949 17.8122 15.9182 17.5004 15.978 17.1995L14.0163 16.8101C13.8795 17.4988 13.95 18.2125 14.2188 18.8612L16.0664 18.0956ZM15.978 17.1997C16.0377 16.8989 16.1854 16.6225 16.4022 16.4056L14.9876 14.9917C14.4911 15.4885 14.1532 16.1212 14.0163 16.8099L15.978 17.1997ZM16.4022 16.4056C16.619 16.1887 16.8953 16.0408 17.1963 15.9808L16.805 14.0194C16.1165 14.1568 15.484 14.495 14.9876 14.9917L16.4022 16.4056ZM17.1962 15.9808C17.4969 15.9208 17.8089 15.9514 18.0923 16.0686L18.8566 14.2204C18.2078 13.9521 17.4938 13.8821 16.8051 14.0194L17.1962 15.9808ZM18.0922 16.0686C18.3758 16.1859 18.6182 16.3846 18.7887 16.6394L20.4509 15.5271C20.0604 14.9435 19.5055 14.4889 18.8567 14.2205L18.0922 16.0686ZM18.7887 16.6394C18.9593 16.8943 19.0504 17.194 19.0506 17.5006L21.0506 17.4994C21.0502 16.797 20.8414 16.1108 20.451 15.5272L18.7887 16.6394ZM19.0506 17.4993C19.0503 17.9106 18.8868 18.3051 18.5958 18.5961L20.0099 20.0103C20.6756 19.3447 21.05 18.4421 21.0506 17.5007L19.0506 17.4993ZM18.5958 18.5961C18.3048 18.887 17.9102 19.0506 17.4988 19.0509L17.5001 21.0509C18.4415 21.0502 19.3442 20.676 20.0099 20.0103L18.5958 18.5961ZM16.4994 20.0509V20.0526H18.4994V20.0509H16.4994ZM21.5847 15.3334C22.644 15.3334 23.5029 14.4746 23.5029 13.4153H21.5029C21.5029 13.3699 21.5396 13.3334 21.5847 13.3334V15.3334ZM23.5029 13.4153C23.5029 12.3558 22.6439 11.4971 21.5847 11.4971V13.4971C21.5396 13.4971 21.5029 13.4606 21.5029 13.4153H23.5029ZM21.5847 11.4971C20.5254 11.4971 19.6664 12.3558 19.6664 13.4153H21.6664C21.6664 13.4606 21.6297 13.4971 21.5847 13.4971V11.4971ZM19.6664 13.4153C19.6664 14.4746 20.5253 15.3334 21.5847 15.3334V13.3334C21.6297 13.3334 21.6664 13.3699 21.6664 13.4153H19.6664ZM17.5 5.12497C10.6684 5.12497 5.12497 10.6684 5.12497 17.5H7.12497C7.12497 11.7729 11.7729 7.12497 17.5 7.12497V5.12497ZM5.12497 17.5C5.12497 24.3316 10.6684 29.875 17.5 29.875V27.875C11.7729 27.875 7.12497 23.2271 7.12497 17.5H5.12497ZM17.5 29.875C24.3316 29.875 29.875 24.3316 29.875 17.5H27.875C27.875 23.2271 23.2271 27.875 17.5 27.875V29.875ZM29.875 17.5C29.875 10.6684 24.3316 5.12497 17.5 5.12497V7.12497C23.2271 7.12497 27.875 11.7729 27.875 17.5H29.875ZM17.5 4.28125C24.788 4.28125 30.7188 10.212 30.7188 17.5H32.7188C32.7188 9.10748 25.8925 2.28125 17.5 2.28125V4.28125ZM30.7188 17.5C30.7188 24.788 24.788 30.7188 17.5 30.7188V32.7188C25.8925 32.7188 32.7188 25.8925 32.7188 17.5H30.7188ZM17.5 30.7188C10.212 30.7188 4.28125 24.788 4.28125 17.5H2.28125C2.28125 25.8925 9.10748 32.7188 17.5 32.7188V30.7188ZM4.28125 17.5C4.28125 10.212 10.212 4.28125 17.5 4.28125V2.28125C9.10748 2.28125 2.28125 9.10748 2.28125 17.5H4.28125Z" fill="#00586F" mask="url(#path-1-inside-1_3009_12165)"/>
</svg>
