<svg width="35" height="35" viewBox="0 0 35 35" fill="none" xmlns="http://www.w3.org/2000/svg">
<path d="M17.9648 16.1978C18.1369 16.0142 18.2749 15.8293 18.4548 15.6722C18.7102 15.4361 19.0127 15.2506 19.3447 15.1263C19.6766 15.002 20.0313 14.9415 20.3882 14.9484C20.7991 14.9449 21.2086 14.9943 21.6053 15.0952C22.5139 15.3433 23.0411 15.9364 23.2939 16.7762C23.4589 17.4039 23.5324 18.0499 23.5125 18.6965C23.5125 20.0648 23.5125 21.4345 23.5125 22.8072C23.5125 22.9349 23.4753 22.9687 23.3419 22.9687C22.5961 22.9687 21.8519 22.9687 21.1077 22.9687C20.9759 22.9687 20.9526 22.9305 20.9526 22.8131C20.9526 21.5113 20.9526 20.2091 20.9526 18.9065C20.9606 18.5792 20.9198 18.2525 20.8317 17.936C20.6534 17.3488 20.2114 17.0551 19.5649 17.0859C18.6827 17.13 18.2222 17.544 18.1105 18.3941C18.0832 18.5966 18.0698 18.8006 18.0702 19.0048C18.0702 20.2718 18.0702 21.5388 18.0702 22.8057C18.0702 22.932 18.0361 22.9687 17.8997 22.9687C17.1508 22.9687 16.4004 22.9687 15.6499 22.9687C15.529 22.9687 15.4949 22.9393 15.4949 22.8219C15.4949 20.3124 15.4949 17.8039 15.4949 15.2964C15.4949 15.173 15.5367 15.1495 15.6608 15.1495C16.374 15.1495 17.0856 15.1495 17.7989 15.1495C17.9292 15.1495 17.9633 15.1877 17.9539 15.3052C17.9602 15.5973 17.9648 15.8983 17.9648 16.1978Z" fill="#00586F"/>
<path d="M14.1581 18.9726C14.1581 20.2436 14.1581 21.5159 14.1581 22.7868C14.1581 22.9282 14.1211 22.9703 13.965 22.9687C13.1907 22.9687 12.4181 22.9687 11.6455 22.9687C11.5215 22.9687 11.4845 22.9417 11.4845 22.8184C11.4845 20.2446 11.4845 17.6712 11.4845 15.0984C11.4845 14.9916 11.5135 14.948 11.6342 14.948C12.4181 14.948 13.202 14.948 13.9859 14.948C14.1372 14.948 14.1565 15.0021 14.1565 15.1224C14.1554 16.4078 14.156 17.6912 14.1581 18.9726Z" fill="#00586F"/>
<path d="M14.1581 12.2673C14.1594 12.5321 14.0822 12.7914 13.936 13.0122C13.7898 13.233 13.5813 13.4055 13.3371 13.5076C13.0928 13.6098 12.8236 13.6371 12.5638 13.5861C12.3039 13.535 12.0651 13.408 11.8775 13.221C11.69 13.0341 11.5622 12.7956 11.5104 12.536C11.4585 12.2763 11.485 12.007 11.5864 11.7624C11.6878 11.5178 11.8596 11.3088 12.0799 11.1619C12.3003 11.0151 12.5593 10.937 12.8241 10.9375C13.1767 10.939 13.5145 11.0794 13.7643 11.3284C14.014 11.5773 14.1555 11.9147 14.1581 12.2673Z" fill="#00586F"/>
<path d="M17.5001 6.12497C11.2208 6.12497 6.12509 11.2206 6.12509 17.5C6.12509 23.7794 11.2208 28.875 17.5001 28.875C23.7795 28.875 28.8751 23.7794 28.8751 17.5C28.8751 11.2206 23.7795 6.12497 17.5001 6.12497ZM17.5001 3.28125C25.3404 3.28125 31.7189 9.65976 31.7189 17.5C31.7189 25.3402 25.3404 31.7188 17.5001 31.7188C9.65988 31.7188 3.28137 25.3402 3.28137 17.5C3.28137 9.65976 9.65988 3.28125 17.5001 3.28125Z" fill="#00586F"/>
</svg>
