<svg width="35" height="35" viewBox="0 0 35 35" fill="none" xmlns="http://www.w3.org/2000/svg">
<path d="M17.9646 16.1978C18.1367 16.0142 18.2747 15.8293 18.4546 15.6722C18.71 15.4361 19.0126 15.2506 19.3445 15.1263C19.6764 15.002 20.0312 14.9416 20.3881 14.9484C20.7989 14.9449 21.2084 14.9943 21.6052 15.0953C22.5138 15.3433 23.041 15.9365 23.2937 16.7762C23.4587 17.4039 23.5322 18.05 23.5123 18.6965C23.5123 20.0648 23.5123 21.4345 23.5123 22.8073C23.5123 22.935 23.4751 22.9688 23.3418 22.9688C22.5959 22.9688 21.8517 22.9688 21.1075 22.9688C20.9757 22.9688 20.9525 22.9305 20.9525 22.8131C20.9525 21.5114 20.9525 20.2092 20.9525 18.9065C20.9604 18.5792 20.9197 18.2525 20.8315 17.9361C20.6532 17.3488 20.2113 17.0551 19.5648 17.086C18.6825 17.13 18.222 17.5441 18.1103 18.3941C18.083 18.5967 18.0696 18.8006 18.07 19.0049C18.07 20.2718 18.07 21.5388 18.07 22.8058C18.07 22.932 18.0359 22.9688 17.8995 22.9688C17.1506 22.9688 16.4002 22.9688 15.6497 22.9688C15.5288 22.9688 15.4947 22.9394 15.4947 22.8219C15.4947 20.3125 15.4947 17.8039 15.4947 15.2964C15.4947 15.173 15.5365 15.1496 15.6606 15.1496C16.3738 15.1496 17.0855 15.1496 17.7987 15.1496C17.929 15.1496 17.9631 15.1878 17.9538 15.3052C17.96 15.5973 17.9646 15.8983 17.9646 16.1978Z" fill="#00586F"/>
<path d="M14.158 18.9726C14.158 20.2435 14.158 21.5159 14.158 22.7867C14.158 22.9281 14.121 22.9702 13.9648 22.9687C13.1906 22.9687 12.418 22.9687 11.6453 22.9687C11.5214 22.9687 11.4844 22.9416 11.4844 22.8183C11.4844 20.2445 11.4844 17.6711 11.4844 15.0983C11.4844 14.9916 11.5133 14.9479 11.6341 14.9479C12.418 14.9479 13.2019 14.9479 13.9858 14.9479C14.1371 14.9479 14.1564 15.002 14.1564 15.1224C14.1553 16.4078 14.1559 17.6912 14.158 18.9726Z" fill="#00586F"/>
<path d="M14.158 12.2673C14.1593 12.5321 14.082 12.7914 13.9359 13.0122C13.7897 13.233 13.5812 13.4055 13.3369 13.5076C13.0926 13.6098 12.8235 13.6371 12.5636 13.5861C12.3038 13.535 12.0649 13.408 11.8774 13.221C11.6899 13.0341 11.5621 12.7956 11.5102 12.536C11.4584 12.2763 11.4849 12.007 11.5863 11.7624C11.6877 11.5178 11.8594 11.3088 12.0798 11.1619C12.3001 11.0151 12.5591 10.937 12.824 10.9375C13.1766 10.939 13.5144 11.0794 13.7641 11.3284C14.0139 11.5773 14.1554 11.9147 14.158 12.2673Z" fill="#00586F"/>
<path d="M17.5 6.12497C11.2206 6.12497 6.12497 11.2206 6.12497 17.5C6.12497 23.7794 11.2206 28.875 17.5 28.875C23.7794 28.875 28.875 23.7794 28.875 17.5C28.875 11.2206 23.7794 6.12497 17.5 6.12497ZM17.5 3.28125C25.3402 3.28125 31.7188 9.65976 31.7188 17.5C31.7188 25.3402 25.3402 31.7188 17.5 31.7188C9.65976 31.7188 3.28125 25.3402 3.28125 17.5C3.28125 9.65976 9.65976 3.28125 17.5 3.28125Z" fill="#00586F"/>
</svg>
