<svg width="101" height="38" viewBox="0 0 101 38" fill="none" xmlns="http://www.w3.org/2000/svg">
<path d="M33.9874 4.86861C34.0304 3.64214 32.9726 2.51925 30.7495 2.47781C29.1756 2.45709 28.0103 2.97503 27.8985 4.22637C27.8125 5.26639 28.178 5.47356 28.8918 5.74289C29.2616 6.11581 32.2373 6.57573 32.8436 6.67932C33.7079 6.82434 35.5655 7.2014 36.5588 8.17927C38.3692 10.0107 37.5307 13.6073 35.5655 14.8337C34.2282 15.6666 32.3921 15.8737 30.642 15.8945C29.8464 15.9152 27.9458 15.6459 26.7805 14.8337C25.3787 13.8559 24.6864 12.3601 24.5789 10.9223H27.7308C27.7308 11.3159 27.8598 11.9416 28.4016 12.4802C29.1154 13.1888 30.2807 13.4167 31.3558 13.3752C32.4351 13.3545 33.4499 13.0437 33.8584 12.6667C34.5507 12.041 34.7012 10.856 33.9229 10.1101C32.8866 9.07012 29.7776 9.07012 27.748 8.40302C26.0452 7.84364 24.6391 6.65446 24.8971 4.20151C25.1551 1.78999 26.9697 0 30.8097 0C31.6525 0 34.5851 0.0621517 36.1202 1.93501C36.9416 2.95431 37.1566 4.36725 37.0276 4.86861H33.9831H33.9874Z" fill="#00586F"/>
<path d="M45.925 15.4097C45.71 15.1403 45.581 14.6846 45.6025 14.2868C44.5446 15.2439 43.6158 15.8903 41.8485 15.8903C39.4749 15.8903 38.3095 14.6017 38.3955 12.4181C38.46 10.8394 39.1094 9.298 41.784 8.86293C42.9063 8.8215 44.1146 8.57289 44.8285 8.345C45.3703 8.1544 45.6283 7.61574 45.5853 7.07709C45.5853 6.36855 44.9833 6.05779 43.5986 6.05779C41.87 6.05779 41.655 7.07709 41.612 7.88921H38.7611C38.8041 4.29266 41.999 3.95703 43.5943 3.95703C44.7596 3.95703 45.7745 4.14349 46.3593 4.37138C47.5246 4.83131 48.4534 5.74702 48.4534 7.53287V13.6901C48.4319 14.1915 48.7329 14.6887 49.1199 15.0202V15.4138H45.925V15.4097ZM45.581 10.106C44.721 10.6032 43.5556 10.5618 42.773 10.7068C41.8442 10.8725 41.1992 11.6225 41.4572 12.5382C41.6292 13.2012 42.171 13.6818 43.4653 13.4746C45.2585 13.2053 45.581 11.9996 45.581 10.7482V10.106Z" fill="#00586F"/>
<path d="M49.6401 4.14367H51.2828V3.05807C51.2828 1.37167 52.1686 0.248779 54.1337 0.248779H56.0128V2.41169H54.955C54.5465 2.41169 54.31 2.6603 54.31 3.18238V4.14367H56.1031V6.07868H54.31V15.4098H51.2871V6.07868H49.6444V4.14367H49.6401Z" fill="#00586F"/>
<path d="M57.4059 4.13915H60.4288V6.32277H60.4718C60.6653 5.65567 60.8158 5.26203 61.8737 4.5535C62.3897 4.18058 63.082 3.80352 64.0323 3.94854V6.92358C62.738 6.77855 60.7943 6.61281 60.4288 9.06576V15.4095H57.4059V4.13915Z" fill="#00586F"/>
<path d="M72.0824 15.4097C71.8674 15.1403 71.7384 14.6846 71.7599 14.2868C70.7021 15.2439 69.7733 15.8903 68.006 15.8903C65.6323 15.8903 64.467 14.6017 64.553 12.4181C64.6175 10.8394 65.2668 9.298 67.9415 8.86293C69.0638 8.8215 70.2721 8.57289 70.9859 8.345C71.5277 8.1544 71.7857 7.61574 71.7427 7.07709C71.7427 6.36855 71.1407 6.05779 69.7561 6.05779C68.0275 6.05779 67.8125 7.07709 67.7695 7.88921H64.9185C64.9615 4.29266 68.1565 3.95703 69.7518 3.95703C70.9171 3.95703 71.9319 4.14349 72.5167 4.37138C73.6821 4.83131 74.6109 5.74702 74.6109 7.53287V13.6901C74.5894 14.1915 74.8947 14.6887 75.2817 15.0202V15.4138H72.0867L72.0824 15.4097ZM71.7384 10.106C70.8741 10.6032 69.7088 10.5618 68.9305 10.7068C68.0017 10.8725 67.3567 11.6225 67.6147 12.5382C67.7867 13.2012 68.3285 13.6818 69.6228 13.4746C71.4116 13.2053 71.7384 11.9996 71.7384 10.7482V10.106Z" fill="#00586F"/>
<path d="M0 22.3252H11.2877V24.977H3.29385V28.5363H10.303V31.1923H3.29385V37.623H0V22.3252Z" fill="#00586F"/>
<path d="M15.5925 24.9522H12.462V22.2134H15.5925V24.9522ZM12.462 26.2823H15.5925V37.6231H12.462V26.2823Z" fill="#00586F"/>
<path d="M27.233 26.9577C28.0027 27.5709 28.3854 28.5861 28.3854 30.0073V37.6272H25.2076V30.749C25.2076 30.1565 25.1216 29.7007 24.9625 29.3858C24.6658 28.8057 24.1025 28.5157 23.264 28.5157C22.2449 28.5157 21.544 28.9383 21.1613 29.7919C20.9678 30.2394 20.8689 30.8153 20.8689 31.5114V37.6314H17.7943V26.3155H20.7829V27.9894C21.1699 27.4052 21.544 26.9867 21.8923 26.734C22.5201 26.274 23.3156 26.0461 24.2745 26.0461C25.4828 26.0461 26.4632 26.3528 27.2287 26.966" fill="#00586F"/>
<path d="M35.105 30.7324C35.6769 30.6661 36.0811 30.575 36.3305 30.4714C36.7691 30.2932 36.9884 30.0115 36.9884 29.6261C36.9884 29.162 36.8207 28.8388 36.481 28.6648C36.1456 28.4867 35.6468 28.3955 34.9889 28.3955C34.2579 28.3955 33.7333 28.5695 33.428 28.9134C33.2087 29.1662 33.0625 29.5101 32.9937 29.9452H30.0352C30.0997 28.959 30.3835 28.1552 30.8995 27.5212C31.7165 26.5351 33.1141 26.0378 35.0921 26.0378C36.3821 26.0378 37.5259 26.2823 38.5322 26.7712C39.5341 27.256 40.0329 28.1842 40.0329 29.5474V34.7392C40.0329 35.0997 40.0415 35.5347 40.0587 36.0485C40.0759 36.4422 40.1404 36.7074 40.2436 36.8399C40.3425 36.9808 40.5016 37.0968 40.7037 37.188V37.6189H37.3539C37.255 37.3952 37.1948 37.1839 37.1604 36.9891C37.1217 36.7902 37.0959 36.5665 37.0701 36.3096C36.6444 36.7571 36.1585 37.1341 35.6038 37.4449C34.9416 37.8137 34.1934 37.996 33.3506 37.996C32.2884 37.996 31.4069 37.7018 30.706 37.1176C30.0137 36.5333 29.6654 35.7005 29.6654 34.619C29.6654 33.2227 30.2244 32.2117 31.3424 31.586C31.953 31.2462 32.8561 31.0018 34.0515 30.8567L35.1007 30.7324H35.105ZM36.9798 32.1122C36.7863 32.2324 36.5842 32.3277 36.3864 32.4023C36.1843 32.4768 35.9134 32.5431 35.5608 32.6053L34.8642 32.7337C34.2063 32.8456 33.7376 32.9782 33.4581 33.1398C32.9765 33.4133 32.74 33.8359 32.74 34.4077C32.74 34.9174 32.8905 35.2861 33.1829 35.514C33.4753 35.7378 33.8365 35.8538 34.2579 35.8538C34.9244 35.8538 35.5393 35.6632 36.1026 35.2861C36.6616 34.9091 36.954 34.2213 36.9798 33.2227V32.1081V32.1122Z" fill="#00586F"/>
<path d="M51.4113 26.9577C52.1724 27.5709 52.5551 28.5861 52.5551 30.0073V37.6272H49.3774V30.749C49.3774 30.1565 49.3 29.7007 49.1366 29.3858C48.8356 28.8057 48.2723 28.5157 47.4424 28.5157C46.4233 28.5157 45.718 28.9383 45.3353 29.7919C45.1418 30.2394 45.0429 30.8153 45.0429 31.5114V37.6314H41.9684V26.3155H44.9569V27.9894C45.3482 27.4052 45.7137 26.9867 46.0663 26.734C46.6942 26.274 47.4897 26.0461 48.4529 26.0461C49.6569 26.0461 50.6416 26.3528 51.4113 26.966" fill="#00586F"/>
<path d="M61.6459 30.3802C61.5857 29.9534 61.4352 29.5722 61.1987 29.2242C60.8547 28.7643 60.3129 28.5322 59.5819 28.5322C58.537 28.5322 57.8275 29.0336 57.4404 30.0322C57.2383 30.5542 57.1351 31.2504 57.1351 32.1163C57.1351 32.9823 57.234 33.6039 57.4404 34.1094C57.8103 35.0582 58.4897 35.5347 59.5045 35.5347C60.2226 35.5347 60.73 35.3441 61.0353 34.9671C61.3363 34.59 61.5169 34.1011 61.5857 33.5003H64.7162C64.6388 34.3994 64.3034 35.253 63.7057 36.0568C62.751 37.3537 61.3234 38.0001 59.4443 38.0001C57.5652 38.0001 56.1805 37.4615 55.2904 36.3841C54.4046 35.3068 53.9574 33.9022 53.9574 32.1868C53.9574 30.2476 54.4519 28.7353 55.4409 27.6579C56.4299 26.5723 57.7888 26.0337 59.5303 26.0337C61.0095 26.0337 62.2221 26.3527 63.1595 26.9908C64.1013 27.6289 64.6603 28.756 64.828 30.3761H61.6545L61.6459 30.3802Z" fill="#00586F"/>
<path d="M73.7333 26.5142C74.5503 26.8706 75.2254 27.4258 75.7543 28.1882C76.2359 28.8553 76.5455 29.6426 76.6874 30.5252C76.7691 31.0431 76.8035 31.7931 76.7863 32.7709H68.2507C68.3023 33.9187 68.7108 34.7225 69.4805 35.1866C69.9578 35.4766 70.5168 35.6175 71.179 35.6175C71.8799 35.6175 72.4518 35.4435 72.8904 35.0996C73.1269 34.909 73.3377 34.6479 73.5226 34.3123H76.61C76.5326 34.9836 76.1542 35.6631 75.4791 36.3551C74.4299 37.4531 72.9635 38 71.0801 38C69.5235 38 68.1561 37.536 66.965 36.6078C65.7781 35.6797 65.1804 34.1673 65.1804 32.0665C65.1804 30.1025 65.7179 28.5984 66.7929 27.5543C67.8637 26.506 69.2612 25.9797 70.9769 25.9797C71.9917 25.9797 72.9119 26.1579 73.729 26.506M69.1279 29.0749C68.6893 29.4934 68.4141 30.0611 68.3066 30.7779H73.6258C73.5699 30.0155 73.2947 29.4313 72.8044 29.0418C72.3099 28.644 71.695 28.4451 70.9726 28.4451C70.1814 28.4451 69.5665 28.6564 69.1279 29.0749Z" fill="#00586F"/>
<path d="M80.7459 24.9522H77.6198V22.2134H80.7459V24.9522ZM77.6198 26.2823H80.7459V37.6231H77.6198V26.2823Z" fill="#00586F"/>
<path d="M89.4537 26.0461C89.4924 26.0503 89.5827 26.0586 89.716 26.0668V29.0792C89.5268 29.0667 89.3505 29.0585 89.2 29.0585C89.0495 29.0543 88.9291 29.0502 88.8388 29.0502C87.6047 29.0502 86.7791 29.4355 86.3534 30.2103C86.1169 30.6454 86.0008 31.3167 86.0008 32.2199V37.6231H82.9348V26.2823H85.8331V28.2836C86.3061 27.5254 86.7189 27.0157 87.0715 26.7339C87.6391 26.2699 88.3916 26.0378 89.3118 26.0378C89.3677 26.0378 89.415 26.0378 89.4537 26.042" fill="#00586F"/>
<path d="M95.3751 30.7324C95.9427 30.6661 96.3512 30.575 96.6006 30.4714C97.0393 30.2932 97.2543 30.0115 97.2543 29.6261C97.2543 29.162 97.0866 28.8388 96.7469 28.6648C96.4072 28.4867 95.9126 28.3955 95.2547 28.3955C94.5237 28.3955 94.0034 28.5695 93.6938 28.9134C93.4745 29.1662 93.3326 29.5101 93.2595 29.9452H90.3054C90.3656 28.959 90.6537 28.1552 91.1654 27.5212C91.9824 26.5351 93.3799 26.0378 95.3622 26.0378C96.6523 26.0378 97.7961 26.2823 98.8023 26.7712C99.8042 27.256 100.303 28.1842 100.303 29.5474V34.7392C100.303 35.0997 100.303 35.5347 100.325 36.0485C100.346 36.4422 100.406 36.7074 100.514 36.8399C100.613 36.9808 100.767 37.0968 100.974 37.188V37.6189H97.6241C97.5295 37.3952 97.465 37.1839 97.4263 36.9891C97.3919 36.7902 97.3618 36.5665 97.3446 36.3096C96.9146 36.7571 96.4244 37.1341 95.8739 37.4449C95.2117 37.8137 94.4592 37.996 93.625 37.996C92.5586 37.996 91.6771 37.7018 90.9805 37.1176C90.2795 36.5333 89.9355 35.7005 89.9355 34.619C89.9355 33.2227 90.4946 32.2117 91.6126 31.586C92.2275 31.2462 93.1262 31.0018 94.3216 30.8567L95.3708 30.7324H95.3751ZM97.25 32.1122C97.0565 32.2324 96.8544 32.3277 96.6523 32.4023C96.4545 32.4768 96.1749 32.5431 95.8266 32.6053L95.13 32.7337C94.4764 32.8456 94.0077 32.9782 93.7282 33.1398C93.2466 33.4133 93.0101 33.8359 93.0101 34.4077C93.0101 34.9174 93.1606 35.2861 93.453 35.514C93.7454 35.7378 94.1066 35.8538 94.5237 35.8538C95.1945 35.8538 95.8094 35.6632 96.3727 35.2861C96.9361 34.9091 97.2285 34.2213 97.25 33.2227V32.1081V32.1122Z" fill="#00586F"/>
</svg>
