<svg width="165" height="17" viewBox="0 0 165 17" fill="none" xmlns="http://www.w3.org/2000/svg">
<path d="M9.68488 4.94311C9.73337 3.68745 8.64013 2.55317 6.34785 2.5155C4.72562 2.49039 3.52658 3.02195 3.41197 4.28598C3.32381 5.34492 3.70291 5.54164 4.43468 5.83044C4.81379 6.21132 7.88632 6.66755 8.50788 6.78056C9.38953 6.92705 11.3115 7.30793 12.3342 8.2999C14.2033 10.1583 13.3349 13.8122 11.3115 15.0595C9.93174 15.8966 8.04061 16.1143 6.23764 16.1352C5.41771 16.1352 3.46046 15.8841 2.27024 15.0595C1.60968 14.5947 1.0642 13.9983 0.672025 13.3121C0.279854 12.626 0.0504864 11.8667 0 11.0875H3.25327C3.25987 11.6812 3.50784 12.2495 3.94537 12.6738C4.67713 13.3895 5.88058 13.6239 6.99145 13.582C8.10233 13.5402 9.14708 13.243 9.57027 12.8621C9.75487 12.6963 9.90308 12.4975 10.0064 12.277C10.1097 12.0566 10.166 11.8189 10.1722 11.5777C10.1783 11.3365 10.1342 11.0965 10.0422 10.8716C9.95025 10.6466 9.81233 10.4412 9.63639 10.2671C8.54315 9.20816 5.34718 9.20816 3.25327 8.53429C1.48998 7.96087 0.0528993 6.75963 0.317393 4.26505C0.581887 1.77048 2.45098 0 6.41397 0C7.29562 0 10.3064 0.0627824 11.8846 1.96301C12.731 2.99684 12.9514 4.43248 12.8191 4.94311H9.68488Z" fill="#00586F"/>
<path d="M21.9876 15.6496C21.75 15.3143 21.6339 14.9146 21.657 14.5111C20.5638 15.4822 19.6072 16.1351 17.7866 16.1351C15.34 16.1351 14.1366 14.825 14.2247 12.6109C14.2909 11.0036 14.9609 9.44245 17.716 8.99878C18.7816 8.9505 19.8364 8.77327 20.8547 8.4714C21.116 8.36789 21.334 8.1855 21.4751 7.95245C21.6161 7.7194 21.6723 7.4487 21.635 7.18226C21.635 6.46235 21.009 6.14425 19.5851 6.14425C17.8218 6.14425 17.5838 7.18226 17.5397 8.00681H14.6038C14.6479 4.34866 17.9409 4.01382 19.5851 4.01382C20.5529 3.99315 21.517 4.13484 22.4329 4.43237C23.6363 4.90115 24.5929 5.83034 24.5929 7.64686V13.8959C24.6007 14.1557 24.6674 14.411 24.7883 14.6443C24.9093 14.8775 25.0817 15.0834 25.2938 15.2478V15.6663L21.9876 15.6496ZM21.635 10.267C20.7533 10.7734 19.5455 10.7274 18.7388 10.8781C18.5138 10.9 18.2965 10.9679 18.1018 11.0772C17.9071 11.1865 17.7397 11.3345 17.6111 11.5112C17.4824 11.6878 17.3957 11.8888 17.3567 12.1003C17.3178 12.3118 17.3276 12.5289 17.3854 12.7365C17.5618 13.4103 18.1172 13.8959 19.4529 13.6866C21.2999 13.4103 21.657 12.1882 21.657 10.9199L21.635 10.267Z" fill="#00586F"/>
<path d="M25.814 4.20642H27.4979V3.10563C27.4979 1.39375 28.406 0.251099 30.4338 0.251099H32.369V2.45269H31.289C30.8482 2.45269 30.619 2.70382 30.619 3.2312V4.20642H32.466V6.17362H30.619V15.6497H27.4979V6.17362H25.8052L25.814 4.20642Z" fill="#00586F"/>
<path d="M33.8193 4.20225H36.9315V6.42058H36.9756C37.1784 5.74252 37.3327 5.3449 38.4215 4.62499C38.7256 4.37882 39.0814 4.197 39.4652 4.09163C39.8491 3.98626 40.2522 3.95976 40.6477 4.0139V7.03167C39.3252 6.88517 37.3106 6.71775 36.9315 9.20814V15.6497H33.8193V4.20225Z" fill="#00586F"/>
<path d="M48.9442 15.6496C48.7032 15.3157 48.5854 14.9154 48.6092 14.5112C47.5203 15.4822 46.5637 16.1352 44.7387 16.1352C42.2922 16.1352 41.0931 14.8251 41.1813 12.6109C41.2474 11.0037 41.9131 9.44251 44.6726 8.99884C45.7382 8.95056 46.7929 8.77333 47.8113 8.47146C48.0717 8.36726 48.2888 8.18456 48.429 7.95158C48.5692 7.71859 48.6248 7.44827 48.5871 7.18232C48.5871 6.46241 47.9656 6.14431 46.5417 6.14431C44.7784 6.14431 44.5404 7.18232 44.4963 8.00687H41.5604C41.6045 4.34872 44.893 4.01388 46.5417 4.01388C47.5095 3.99356 48.4734 4.13524 49.3894 4.43243C50.5885 4.90121 51.545 5.83039 51.545 7.64691V13.8959C51.551 14.1553 51.6159 14.4104 51.7353 14.6438C51.8548 14.8771 52.026 15.0832 52.2371 15.2478V15.6664L48.9442 15.6496ZM48.5871 10.2671C47.7055 10.7735 46.4976 10.7275 45.6953 10.8781C45.4703 10.9001 45.2529 10.9681 45.058 11.0773C44.8632 11.1866 44.6956 11.3345 44.5666 11.5111C44.4377 11.6876 44.3504 11.8885 44.3109 12.1C44.2714 12.3115 44.2805 12.5286 44.3376 12.7365C44.5183 13.4104 45.0738 13.8959 46.4094 13.6866C48.2521 13.4104 48.5871 12.1882 48.5871 10.92V10.2671Z" fill="#00586F"/>
<path d="M60.1855 0.368286H71.8233V3.06377H63.5843V6.67588H70.8094V9.37136H63.5843V15.905H60.1855V0.368286Z" fill="#00586F"/>
<path d="M76.2576 3.03863H73.0308V0.255249H76.2576V3.03863ZM73.0308 4.38636H76.2576V15.9049H73.0308V4.38636Z" fill="#00586F"/>
<path d="M88.2568 5.07283C89.0503 5.69647 89.4427 6.74704 89.4427 8.17012V15.905H86.1673V8.91933C86.1904 8.44569 86.1047 7.97296 85.9161 7.53392C85.6222 6.94237 85.0344 6.64798 84.1528 6.65077C83.6934 6.61918 83.2353 6.72757 82.8453 6.96017C82.4552 7.19277 82.1535 7.53746 81.9839 7.9441C81.7642 8.50153 81.6623 9.09463 81.6842 9.68947V15.905H78.5146V4.4157H81.6004V6.11503C81.9036 5.63825 82.2896 5.21369 82.7421 4.85937C83.4597 4.37066 84.3284 4.12321 85.2108 4.1562C86.3109 4.11237 87.3912 4.44342 88.2568 5.08957" fill="#00586F"/>
<path d="M96.3723 8.90683C96.8044 8.87187 97.2297 8.78322 97.6375 8.64314C97.828 8.58809 97.9955 8.47771 98.1165 8.32755C98.2375 8.17739 98.3058 7.995 98.312 7.80603C98.3338 7.61266 98.2958 7.41742 98.2027 7.24421C98.1095 7.071 97.9652 6.92734 97.7874 6.8308C97.3073 6.62198 96.7804 6.52854 96.2533 6.55874C95.9606 6.53036 95.6648 6.56242 95.3863 6.65272C95.1078 6.74303 94.8532 6.88945 94.6399 7.08194C94.3959 7.38642 94.2436 7.74807 94.1991 8.12832H91.153C91.1749 7.24165 91.4826 6.38268 92.0346 5.66723C92.8722 4.6627 94.3181 4.16043 96.3547 4.16043C97.5831 4.13787 98.7995 4.39325 99.9033 4.90546C100.935 5.39935 101.451 6.3397 101.451 7.72651V12.9752C101.451 13.3435 101.459 13.7872 101.477 14.3062C101.463 14.5867 101.528 14.8658 101.667 15.114C101.789 15.2702 101.953 15.3917 102.143 15.4656V15.8841H98.6911C98.599 15.6783 98.531 15.4636 98.4883 15.2437C98.453 15.0428 98.4222 14.8252 98.4001 14.5573C97.9588 15.0115 97.4475 15.3996 96.8837 15.7083C96.1798 16.0968 95.3791 16.2991 94.565 16.2943C93.5767 16.3216 92.6127 16.0011 91.8583 15.3944C91.494 15.0727 91.209 14.6785 91.0238 14.24C90.8387 13.8015 90.7578 13.3296 90.7871 12.858C90.7871 11.4405 91.3631 10.4136 92.5151 9.77742C93.3887 9.36408 94.3372 9.11264 95.3099 9.03658L96.3723 8.90683ZM98.3031 10.309C98.1092 10.4261 97.904 10.5256 97.6904 10.6062C97.4137 10.6981 97.129 10.7667 96.8396 10.8112L96.1211 10.941C95.6164 11.0026 95.1262 11.1441 94.6708 11.3595C94.4335 11.4881 94.2386 11.6767 94.1078 11.9044C93.977 12.132 93.9155 12.3897 93.9302 12.6487C93.9083 12.8559 93.9367 13.065 94.0131 13.2602C94.0895 13.4553 94.2119 13.6313 94.371 13.7746C94.6869 14.0071 95.0779 14.1283 95.4775 14.1178C96.1598 14.1208 96.8259 13.9202 97.3818 13.5444C97.9593 13.1593 98.2635 12.4645 98.2855 11.4516L98.3031 10.309Z" fill="#00586F"/>
<path d="M113.172 5.0729C113.957 5.69654 114.354 6.74711 114.354 8.17019V15.905H111.078V8.9194C111.104 8.44563 111.018 7.97245 110.827 7.53399C110.519 6.94383 109.946 6.65084 109.064 6.65084C108.605 6.61925 108.146 6.72764 107.756 6.96024C107.366 7.19284 107.065 7.53753 106.895 7.94417C106.674 8.50129 106.57 9.09441 106.591 9.68953V15.905H103.426V4.41577H106.512V6.11509C106.815 5.63832 107.201 5.21376 107.653 4.85943C108.372 4.36984 109.242 4.12234 110.126 4.15627C111.226 4.11429 112.306 4.44513 113.172 5.08964" fill="#00586F"/>
<path d="M123.721 8.55114C123.669 8.13256 123.519 7.73049 123.28 7.37501C123.083 7.13295 122.825 6.94147 122.53 6.81794C122.236 6.69442 121.913 6.64276 121.592 6.66765C121.098 6.65004 120.612 6.79071 120.212 7.06704C119.812 7.34336 119.522 7.73929 119.388 8.19118C119.156 8.87478 119.05 9.59126 119.075 10.3091C119.048 10.9954 119.154 11.6805 119.388 12.3307C119.518 12.7655 119.799 13.1458 120.185 13.4095C120.572 13.6733 121.041 13.8049 121.517 13.7831C121.809 13.8109 122.103 13.7735 122.377 13.6739C122.652 13.5744 122.897 13.4154 123.095 13.2096C123.424 12.7715 123.619 12.256 123.659 11.7196H126.882C126.795 12.6607 126.435 13.5604 125.841 14.3188C124.854 15.6372 123.386 16.2902 121.433 16.2902C119.48 16.2902 118.07 15.7461 117.153 14.6495C116.194 13.4188 115.709 11.9135 115.777 10.3844C115.777 8.4172 116.284 6.88111 117.307 5.78032C118.33 4.67953 119.745 4.15633 121.534 4.15633C122.857 4.10295 124.163 4.44239 125.273 5.12738C126.242 5.77613 126.82 6.92297 126.992 8.56788L123.721 8.55114Z" fill="#00586F"/>
<path d="M136.179 4.62087C137.031 4.98731 137.755 5.5786 138.264 6.32438C138.77 7.03414 139.099 7.84447 139.225 8.69338C139.321 9.45009 139.355 10.2128 139.326 10.9745H130.51C130.563 12.1381 130.986 12.9584 131.779 13.4272C132.312 13.7256 132.925 13.871 133.543 13.8458C134.177 13.8726 134.802 13.6859 135.306 13.3184C135.576 13.0968 135.799 12.8283 135.963 12.5273H139.145C139.012 13.3278 138.602 14.0636 137.982 14.6201C136.897 15.7362 135.387 16.2943 133.45 16.2943C131.904 16.3123 130.4 15.8113 129.205 14.8796C127.984 13.9337 127.367 12.3976 127.367 10.2755C127.367 8.28041 127.922 6.75269 129.033 5.69236C129.597 5.15795 130.271 4.74004 131.013 4.46488C131.754 4.18972 132.548 4.06327 133.344 4.09349C134.318 4.07993 135.284 4.26252 136.179 4.62924V4.62087ZM131.435 7.23682C130.962 7.71131 130.665 8.31984 130.589 8.96963H136.073C136.069 8.63556 135.991 8.30599 135.846 8.0019C135.7 7.6978 135.489 7.42585 135.227 7.20334C134.694 6.79414 134.025 6.58023 133.34 6.60062C132.994 6.58104 132.647 6.62722 132.32 6.73646C131.993 6.84571 131.692 7.01582 131.435 7.23682Z" fill="#00586F"/>
<path d="M143.408 3.03863H140.186V0.255249H143.408V3.03863ZM140.186 4.38636H143.408V15.9049H140.186V4.38636Z" fill="#00586F"/>
<path d="M152.383 4.15632L152.652 4.17725V7.23268C152.454 7.23268 152.277 7.23268 152.119 7.23268H151.748C150.474 7.23268 149.624 7.62612 149.187 8.413C148.903 9.05861 148.778 9.75714 148.821 10.4555V15.9386H145.661V4.38652H148.649V6.42069C148.984 5.83439 149.416 5.30301 149.928 4.84693C150.589 4.35751 151.414 4.11215 152.251 4.15632H152.401" fill="#00586F"/>
<path d="M158.484 8.90689C158.916 8.87194 159.341 8.78328 159.749 8.6432C159.94 8.58815 160.107 8.47778 160.228 8.32762C160.349 8.17746 160.418 7.99507 160.424 7.8061C160.446 7.61272 160.408 7.41748 160.314 7.24428C160.221 7.07107 160.077 6.92741 159.899 6.83087C159.418 6.62153 158.889 6.52809 158.361 6.55881C158.069 6.5316 157.774 6.56423 157.496 6.65449C157.219 6.74475 156.965 6.89054 156.752 7.082C156.51 7.38751 156.357 7.74864 156.311 8.12838H153.269C153.289 7.24133 153.597 6.38173 154.151 5.66729C154.993 4.66277 156.43 4.1605 158.475 4.1605C159.696 4.14062 160.905 4.39595 162.002 4.90553C163.033 5.39942 163.549 6.33977 163.549 7.72657V12.9752C163.549 13.3436 163.549 13.7872 163.571 14.3062C163.564 14.5867 163.63 14.8644 163.765 15.114C163.887 15.2702 164.052 15.3918 164.241 15.4656V15.8842H160.79C160.698 15.6778 160.629 15.4633 160.582 15.2438C160.542 15.0165 160.514 14.7874 160.499 14.5574C160.056 15.0106 159.545 15.3986 158.982 15.7084C158.283 16.093 157.489 16.2952 156.681 16.2943C155.688 16.3296 154.718 16.01 153.961 15.3986C153.594 15.0789 153.307 14.6852 153.12 14.2463C152.934 13.8074 152.854 13.3344 152.886 12.8622C152.886 11.4433 153.459 10.4179 154.614 9.78167C155.486 9.3695 156.433 9.11812 157.404 9.04083L158.484 8.90689ZM160.415 10.309C160.221 10.4262 160.016 10.5257 159.802 10.6062C159.525 10.6977 159.241 10.7663 158.951 10.8113L158.228 10.9411C157.726 11.0046 157.237 11.1459 156.782 11.3596C156.546 11.4883 156.351 11.6771 156.221 11.9048C156.091 12.1325 156.031 12.3901 156.046 12.6488C156.025 12.8559 156.054 13.0649 156.13 13.2599C156.207 13.455 156.329 13.631 156.487 13.7747C156.803 14.0038 157.192 14.1247 157.589 14.1179C158.273 14.1214 158.941 13.9208 159.498 13.5445C160.075 13.1594 160.38 12.4646 160.38 11.4517L160.415 10.309Z" fill="#00586F"/>
</svg>
