<svg width="30" height="30" viewBox="0 0 30 30" fill="none" xmlns="http://www.w3.org/2000/svg">
<path fill-rule="evenodd" clip-rule="evenodd" d="M5.24952 12.5628C5.24952 8.52995 8.52918 5.2503 12.562 5.2503C16.5949 5.2503 19.8745 8.52995 19.8745 12.5628C19.8745 16.5956 16.5949 19.8753 12.562 19.8753C8.52918 19.8753 5.24952 16.5956 5.24952 12.5628ZM26.8304 25.1071L20.2553 18.5307C21.5398 16.8805 22.3125 14.8123 22.3125 12.5625C22.3125 7.18659 17.9384 2.8125 12.5625 2.8125C7.18659 2.8125 2.8125 7.18659 2.8125 12.5625C2.8125 17.9384 7.18659 22.3125 12.5625 22.3125C14.8123 22.3125 16.8793 21.5386 18.5307 20.2553L25.1071 26.8304C25.3447 27.0681 25.6567 27.1875 25.9688 27.1875C26.2808 27.1875 26.5928 27.0681 26.8304 26.8304C27.3069 26.3539 27.3069 25.5836 26.8304 25.1071Z" fill="#0A4A5B"/>
</svg>
