<svg width="25" height="25" viewBox="0 0 25 25" fill="none" xmlns="http://www.w3.org/2000/svg">
<path fill-rule="evenodd" clip-rule="evenodd" d="M4.3746 10.469C4.3746 7.10829 7.10765 4.37525 10.4684 4.37525C13.8291 4.37525 16.5621 7.10829 16.5621 10.469C16.5621 13.8297 13.8291 16.5627 10.4684 16.5627C7.10765 16.5627 4.3746 13.8297 4.3746 10.469ZM22.3587 20.9226L16.8794 15.4423C17.9498 14.0671 18.5938 12.3436 18.5938 10.4688C18.5938 5.98883 14.9487 2.34375 10.4688 2.34375C5.98883 2.34375 2.34375 5.98883 2.34375 10.4688C2.34375 14.9487 5.98883 18.5938 10.4688 18.5938C12.3436 18.5938 14.0661 17.9488 15.4423 16.8794L20.9226 22.3587C21.1206 22.5567 21.3806 22.6562 21.6406 22.6562C21.9006 22.6562 22.1606 22.5567 22.3587 22.3587C22.7558 21.9616 22.7558 21.3197 22.3587 20.9226Z" fill="#0EA0C0"/>
</svg>
