<svg width="13" height="12" viewBox="0 0 13 12" fill="none" xmlns="http://www.w3.org/2000/svg">
<g clip-path="url(#clip0_2192_5790)">
<path d="M0.90348 12C1.15621 11.0672 1.37465 10.2233 1.62558 9.3722C1.67176 9.236 1.68901 9.09192 1.67628 8.94889C1.66355 8.80585 1.6211 8.66692 1.55156 8.5407C0.38537 6.24695 0.82946 3.62805 2.65817 1.76605C3.52025 0.915555 4.62176 0.339167 5.82025 0.111428C7.01874 -0.116311 8.25908 0.0150723 9.38089 0.488581C10.105 0.80905 10.7579 1.26675 11.3023 1.83556C11.8467 2.40437 12.2719 3.07313 12.5537 3.80368C12.8355 4.53423 12.9683 5.31226 12.9446 6.09333C12.9209 6.8744 12.7411 7.64324 12.4155 8.35592C12.0899 9.06861 11.6248 9.71118 11.0469 10.247C10.469 10.7828 9.78946 11.2013 9.04718 11.4786C8.30491 11.756 7.51441 11.8867 6.7208 11.8634C5.92719 11.84 5.14602 11.6631 4.42189 11.3426C4.20943 11.2558 3.97502 11.2353 3.75035 11.284C2.82426 11.4936 1.91622 11.7406 0.90348 12ZM2.30616 10.5004L2.45418 10.5644C2.91271 10.4471 3.37846 10.3459 3.82977 10.209C3.96032 10.1617 4.10003 10.144 4.2385 10.1572C4.37697 10.1705 4.51064 10.2143 4.6295 10.2854C5.55121 10.7761 6.6059 10.9704 7.64552 10.841C8.68514 10.7116 9.65751 10.2651 10.4261 9.56409C12.0021 8.08586 12.4931 5.77967 11.6248 3.92299C10.6644 1.86555 8.77071 0.811946 6.4925 1.06779C3.35138 1.42314 1.25731 4.46311 2.2556 7.41603C2.61124 8.47318 2.98312 9.43261 2.30254 10.5004L2.30616 10.5004Z" fill="white"/>
<path d="M8.57584 8.83209C7.83569 8.79834 7.19123 8.47675 6.57745 8.1214C5.64428 7.55125 4.86707 6.76498 4.31367 5.8312C3.81362 5.0068 3.82805 4.14154 4.33172 3.557C4.78303 3.02398 5.29753 3.10038 5.5629 3.72401C5.61916 3.89165 5.68793 4.05496 5.76868 4.21261C6.016 4.61237 5.94921 4.94106 5.63871 5.2893C5.58921 5.36868 5.56035 5.45884 5.55468 5.55181C5.54902 5.64478 5.56673 5.73769 5.60623 5.82232C6.01597 6.49728 6.62664 7.03195 7.35549 7.35386C7.666 7.49955 7.86457 7.46223 8.07759 7.19039C8.4946 6.65737 8.50905 6.67514 9.11922 6.97008L9.60301 7.20106C10.076 7.42671 10.1771 7.80159 9.85575 8.22978C9.70968 8.42655 9.51629 8.58457 9.29291 8.68969C9.06953 8.79481 8.82316 8.84374 8.57584 8.83209V8.83209Z" fill="white"/>
</g>
<defs>
<clipPath id="clip0_2192_5790">
<rect width="12.1041" height="12" fill="white" transform="translate(0.894531)"/>
</clipPath>
</defs>
</svg>
